<?xml version="1.0" standalone="no"?>
<!DOCTYPE svg PUBLIC "-//W3C//DTD SVG 20010904//EN"
 "http://www.w3.org/TR/2001/REC-SVG-20010904/DTD/svg10.dtd">
<svg version="1.0" xmlns="http://www.w3.org/2000/svg"
 width="358.000000pt" height="358.000000pt" viewBox="0 0 358.000000 358.000000"
 preserveAspectRatio="xMidYMid meet">
<metadata>
Created by potrace 1.11, written by Peter Selinger 2001-2013
</metadata>
<g transform="translate(0.000000,358.000000) scale(0.100000,-0.100000)"
fill="#000000" stroke="none">
<path d="M1745 2886 c-84 -26 -170 -107 -250 -235 -42 -68 -121 -259 -186
-451 -160 -476 -219 -924 -169 -1275 13 -85 28 -110 77 -125 21 -7 61 -35 90
-61 63 -60 90 -62 175 -17 63 34 215 188 414 420 438 513 609 939 538 1341
-43 250 -133 352 -326 373 -35 3 -99 15 -143 25 -92 22 -162 23 -220 5z m96
-163 c-112 -149 -202 -327 -287 -570 -41 -116 -54 -183 -36 -183 4 0 21 39 36
88 34 104 104 279 145 359 42 83 141 230 195 288 55 60 59 73 -69 -230 -208
-491 -322 -808 -496 -1372 -29 -95 -56 -170 -60 -167 -18 11 -20 135 -5 240
20 136 20 141 -5 76 -11 -28 -24 -52 -29 -52 -5 0 -7 6 -5 13 17 46 75 280 71
284 -10 10 -49 -98 -77 -212 -46 -187 -49 -193 -43 -80 7 131 28 271 66 425
36 152 145 507 188 616 73 184 189 382 266 454 l37 35 -22 -32 c-40 -58 -119
-236 -160 -358 -22 -66 -69 -212 -106 -325 -36 -113 -74 -226 -85 -252 -11
-26 -16 -49 -11 -52 13 -9 45 73 162 414 131 384 176 484 256 571 52 56 106
99 125 99 4 0 -19 -35 -51 -77z m275 -75 c-3 -13 -8 -59 -11 -102 -4 -58 -18
-114 -52 -205 -96 -266 -252 -641 -339 -813 -52 -104 -342 -626 -371 -668
l-24 -35 7 30 c53 232 305 859 552 1371 189 394 215 444 229 444 9 0 12 -8 9
-22z m74 -357 c-34 -279 -225 -709 -434 -976 -30 -38 -101 -135 -157 -215
-118 -167 -171 -233 -208 -256 l-26 -17 18 26 c243 371 516 933 699 1437 l49
135 -6 -65 c-15 -166 -73 -358 -184 -606 -39 -87 -69 -160 -67 -162 4 -4 82
130 123 213 73 146 161 425 178 570 7 51 9 56 17 35 5 -15 4 -61 -2 -119z"/>
</g>
</svg>
