<?xml version="1.0" encoding="UTF-8"?>
<svg width="56px" height="79px" viewBox="0 0 56 79" version="1.1" xmlns="http://www.w3.org/2000/svg" xmlns:xlink="http://www.w3.org/1999/xlink">
    <!-- Generator: Sketch 48.2 (47327) - http://www.bohemiancoding.com/sketch -->
    <title>arrow-top</title>
    <desc>Created with Sketch.</desc>

    <g id="Page-1" stroke="none" stroke-width="1">
        <g id="arrow-top" transform="translate(28.000000, 39.500000) rotate(-90.000000) translate(-28.000000, -39.500000) translate(-11.000000, 12.000000)" fill-rule="nonzero">
            <path d="M52.44,0.82 C51.3658062,-0.26247811 49.6174781,-0.269193838 48.535,0.805 C47.4525219,1.87919384 47.4458062,3.62752189 48.52,4.71 L68.42,24.61 L2.75,24.61 C2.01983949,24.6073303 1.318814,24.8962042 0.802509104,25.4125091 C0.286204206,25.928814 -0.00266971787,26.6298395 -6.87082634e-16,27.36 C-0.00558386589,28.8876068 1.22247185,30.1335251 2.75,30.15 L68.42,30.15 L48.52,50 C47.4621122,51.0964262 47.4621122,52.8335738 48.52,53.93 C49.0355693,54.4577726 49.7421954,54.7553199 50.48,54.7553199 C51.2178046,54.7553199 51.9244307,54.4577726 52.44,53.93 L77.05,29.32 C77.5780593,28.8127733 77.8765355,28.1122059 77.8765355,27.38 C77.8765355,26.6477941 77.5780593,25.9472267 77.05,25.44 L52.44,0.82 Z" id="Shape"></path>
        </g>
    </g>
</svg>