<svg xmlns="http://www.w3.org/2000/svg" viewBox="0 0 160.99 92.02">
    <title>bear</title>

    <g id="Layer_2" data-name="Layer 2">
        <g id="Слой_1" data-name="Слой 1">
            <g id="oaetCP.tif">
                <path d="M103.94,0c3.69.42,7.42.63,11.07,1.32a16.29,16.29,0,0,1,6.11,2.44c7.72,5.42,15.12,11.42,25.69,8.64.58-.15,3.15,3.18,2.8,4.23-1.62,4.88.6,8.67,2.39,12.78,3.15,7.23,6,14.59,9,21.92-3.42,4-7.19,6.67-12.84,3.75a64.69,64.69,0,0,0-14.7-5.56c2,7.53,3.55,15.2,6.08,22.54,2.67,7.77,9.13,12.23,17,15.18-4.77,3.61-13,3.29-17.17.21a13.59,13.59,0,0,0-5.71-2.63,13.45,13.45,0,0,1-10.57-7.33c-3.71-6.78-7.52-13.52-11.64-20.06-.68-1.08-3.74-1.92-4.78-1.31-7.81,4.56-13.34,11-15.71,20-1.63,6.19-.07,8.7,6.35,10.06,1.84.39,3.44,1.9,6.22,3.53-18.6,5.1-29.46-3.65-29.34-26.48-5,1.21-11.14,1-14.18,3.91-2.71,2.64-2.53,8.76-2.67,13.38-.1,3.29,2.69,5,6.09,5.45,1.71.25,3.31,1.32,5,2l-.15,1.51c-1.44.47-2.86,1.27-4.31,1.34-5,.23-10,.18-15,.29-4.38.09-5.8-2.33-6.64-6.36a73.58,73.58,0,0,0-4.86-15c-1.63-3.66-4.62-5.1-8.29-1.69-6,5.55-12,11-18.78,17.12l6.37,3.95-1.13,1.61c-4.4.2-9.09,3.38-13-1.5C-.85,85-.68,77.69,2,72.52,3.92,68.91,5,64.87,6.29,61c3-9.23,5.7-18.53,8.69-27.76C19.23,20.07,29.18,12,41,6.57A50.19,50.19,0,0,1,67,2.18c10.11.93,20.4,0,30.6-.32C99.08,1.81,100.5.65,101.94,0Z"/>
            </g>
        </g>
    </g>
</svg>