<svg xmlns="http://www.w3.org/2000/svg" viewBox="0 0 179.67 113.38">

    <title>bird</title>
    <g id="Layer_2" data-name="Layer 2">
        <g id="Слой_1" data-name="Слой 1">
            <path class="cls-1"
                  d="M0,52c3.29,1.7,6.49,3.6,9.89,5.05,4.07,1.73,8.35,3,12.45,4.62a20.33,20.33,0,0,0,11.88,1,149.22,149.22,0,0,1,19.91-2.44L41.77,67.15,42,68.6c3,.31,6.06.86,9.09.89,6.92.06,13.84-.17,20.76-.19a7.82,7.82,0,0,1,2.82.77c5.56,2.23,9.91,6.3,14.78,9.58,3.86,2.6,8.65,3.82,13,5.71a5.7,5.7,0,0,1,2.41,1.56c2.8,4,5.58,8,8.14,12.11,1.59,2.57,2.78,5.37,4.24,8.26L115,108.78l10.2,4.6c0-.26,0-1,.1-1.91,1.39.14,2.78.31,4.18.41,4.08.28,7.25-1.88,10.63-3.7,1.26-.69,3.12-.26,5.13-.36l-3.31-2.39,2.72-.28c0-.2.07-.41.1-.61-.89-.12-1.92-.58-2.66-.29-7.08,2.79-12.24.19-16.42-5.54-3.29-4.51-6.64-9-10.47-14.15l9.39-2.81a8.25,8.25,0,0,0,2.57-.83c5.25-4,10.63-8,15.57-12.35a24.91,24.91,0,0,0,5.41-7.71c3.62-7.5,7.06-15.08,7.66-23.63.29-4.24.4-8.78,2-12.58,3-7.09,5.21-15.19,14.11-17.8-.27.51-.53,1-.76,1.55a5.28,5.28,0,0,0-.35,1.42,2,2,0,0,0,1.13,2.08,2.58,2.58,0,0,1,.55.42,1.87,1.87,0,0,0,2.3.45,6.38,6.38,0,0,0,3.14-3,15.54,15.54,0,0,0,1.47-5.44c.13-1.05.21-2.1.27-2.8-.14-1.12-.34-1.27-1.11-1.23a.41.41,0,0,1-.29-.06.54.54,0,0,0-.8,0,13.45,13.45,0,0,0-1.53,1.17c-.4.39-.76.8-1.12,1.22-2.08-.59-4.16.05-6.06.21-2.67.22-5.25,1.47-7.91,2.12a5.56,5.56,0,0,1-2.65-.15C151.89,3,145.52,1.18,139,2.13a13,13,0,0,0-6.65,3.71c-4.29,4.23-8,9-12.27,13.3a33,33,0,0,1-6.61,4.71c-5.49,3.31-11.31,6.12-16.54,9.8-5.72,4-12.31,5.44-18.75,7a204.16,204.16,0,0,1-25.3,4.46C43.46,46.25,34,46.5,24.56,47.23c-2.73.21-5.44.82-8.16,1.23l-16,2.43ZM111,84.48c5.91,3,14.07,17.94,12.24,22.78C117.69,103.75,109.17,87.68,111,84.48Z"/>
        </g>
    </g>
</svg>