<svg xmlns="http://www.w3.org/2000/svg" viewBox="0 0 129.74 88.45">
    <title>car</title>
    <g id="Layer_2" data-name="Layer 2">
        <g id="Слой_1" data-name="Слой 1">
            <path d="M106.07,64.67a12,12,0,0,0-8.46,3.49,11.74,11.74,0,0,0,0,16.8,12.07,12.07,0,0,0,8.46,3.49,11.89,11.89,0,0,0,0-23.78Z"/>
            <path d="M109.13,25.07a2.56,2.56,0,0,0-1.77-.69H93.81A2.65,2.65,0,0,0,91.17,27V48.69a2.65,2.65,0,0,0,2.64,2.64h21.5A2.64,2.64,0,0,0,118,48.69V34.18a2.62,2.62,0,0,0-.87-2Zm3.54,21H96.45V29.64h9.88l6.34,5.71Z"/>
            <path d="M41.55,64.67a12,12,0,0,0-8.45,3.49,11.8,11.8,0,0,0-3.54,8.4A11.68,11.68,0,0,0,33.1,85a12,12,0,0,0,8.45,3.49,11.89,11.89,0,0,0,0-23.78Z"/>
            <path d="M23.93,67.92H18.62v-7a2.64,2.64,0,0,0-5.28,0v9.67A2.65,2.65,0,0,0,16,73.2h8a2.64,2.64,0,1,0,0-5.28Z"/>
            <path d="M37.33,53.52a2.65,2.65,0,0,0-2.64-2.64h-32a2.64,2.64,0,0,0,0,5.28H34.69a2.63,2.63,0,0,0,2.64-2.64Z"/>
            <path d="M8,44l32.05.18a2.67,2.67,0,0,0,2.67-2.61,2.63,2.63,0,0,0-2.62-2.67l-32-.19H8A2.65,2.65,0,0,0,8,44Z"/>
            <path d="M13.39,32H45.44a2.64,2.64,0,0,0,0-5.28h-32a2.64,2.64,0,0,0,0,5.28Z"/>
            <path d="M128.76,28.42,109.85,12.76a2.61,2.61,0,0,0-1.7-.61H85.91V2.64A2.65,2.65,0,0,0,83.27,0H16a2.65,2.65,0,0,0-2.64,2.64V22a2.64,2.64,0,0,0,5.28,0V5.28h62V67.92H59a2.64,2.64,0,0,0,0,5.28H91.25a2.64,2.64,0,0,0,0-5.28H85.94V17.44h21.29L124.45,31.7l-.18,36.17h-2.75a2.64,2.64,0,0,0,0,5.28h5.36a2.63,2.63,0,0,0,2.65-2.61l.21-40.05a2.82,2.82,0,0,0-1-2.07Z"/>
        </g>
    </g>
</svg>