<svg xmlns="http://www.w3.org/2000/svg" viewBox="0 0 116.58 107.87">

    <title>cart</title>
    <g id="Layer_2" data-name="Layer 2">
        <g id="Слой_1" data-name="Слой 1">
            <path class="cls-1" d="M48.88,87.37A10.25,10.25,0,1,0,59.13,97.62,10.26,10.26,0,0,0,48.88,87.37Z"/>
            <path class="cls-1" d="M84.84,87.37A10.25,10.25,0,1,0,95.1,97.62,10.26,10.26,0,0,0,84.84,87.37Z"/>
            <path class="cls-1" d="M46.35,39.11h41a2.86,2.86,0,0,0,0-5.72h-41a2.86,2.86,0,1,0,0,5.72Z"/>
            <path class="cls-1" d="M85.14,48.25H48.58a2.87,2.87,0,0,0,0,5.73H85.14a2.87,2.87,0,0,0,0-5.73Z"/>
            <path class="cls-1"
                  d="M115.29,20.64a5.7,5.7,0,0,0-4.44-2.11H21.69l-1.8-8.74a5.72,5.72,0,0,0-3.32-4.1L4,.24A2.86,2.86,0,0,0,1.72,5.49l12.57,5.45L28.14,78.17a5.73,5.73,0,0,0,5.6,4.57h68.58a2.86,2.86,0,1,0,0-5.72H33.74l-1.68-8.18h70.79a5.73,5.73,0,0,0,5.6-4.57l8-38.86A5.7,5.7,0,0,0,115.29,20.64ZM102.85,63.11h-72l-8-38.86h88Z"/>
        </g>
    </g>
</svg>