<?xml version="1.0" encoding="UTF-8"?>
<svg width="121px" height="106px" viewBox="0 0 121 106" version="1.1" xmlns="http://www.w3.org/2000/svg" xmlns:xlink="http://www.w3.org/1999/xlink">
    <!-- Generator: Sketch 48.2 (47327) - http://www.bohemiancoding.com/sketch -->
    <title>chill</title>
    <desc>Created with Sketch.</desc>
    <g id="Page-1" stroke="none" stroke-width="1">
        <g id="chill" transform="translate(-1.000000, -1.000000)" fill-rule="nonzero">
            <path d="M68.76,90.06 L61.4,97.42 L54,90.06 L3,90.06 C2.93206046,94.4995558 4.70170012,98.7698519 7.89,101.86 C10.9815159,105.046287 15.2509013,106.815549 19.69,106.75 L103.11,106.75 C112.325346,106.744483 119.794483,99.2753465 119.8,90.06 L68.76,90.06 Z" id="Shape"></path>
            <polygon id="Shape" points="59.4 52.42 63.4 52.42 63.4 79.76 59.4 79.76"></polygon>
            <path d="M43.0149316,21.69 L1.03143232,21.69 L1.00025091,19.7216793 C0.921160013,14.7290816 2.91146725,9.92629526 6.45310431,6.49883834 C9.92629526,2.91146725 14.7290816,0.921160013 19.69,1 L103.083229,1.00017917 C108.060276,0.933554127 112.844399,2.92287083 116.261162,6.45310431 C119.848533,9.92629526 121.83884,14.7290816 121.759749,19.7216793 L121.728568,21.69 L79.7464503,21.69 L61.4018253,45.603529 L43.0149316,21.69 Z M5.10659852,17.69 L44.9850684,17.69 L61.3981747,39.036471 L77.7735497,17.69 L117.653204,17.69 C117.256839,14.5263409 115.78882,11.5631078 113.433174,9.2812334 C110.737195,6.49690282 107.012091,4.94794399 103.11,5 L19.6583207,4.99974909 C15.7708913,4.93816586 12.0312563,6.48789596 9.28116166,9.32689569 C6.96346095,11.5708278 5.50190743,14.5275237 5.10659852,17.69 Z M117.09,17.28 L117.09,21.28 L3.75,21.28 L3.75,17.28 L117.09,17.28 Z M118.09,9.41 L118.09,13.41 L4.75,13.41 L4.75,9.41 L118.09,9.41 Z" id="Shape"></path>
        </g>

    </g>
</svg>