<svg xmlns="http://www.w3.org/2000/svg" viewBox="0 0 138.13 147.36">
    <title>claw</title>
    <g id="Layer_2" data-name="Layer 2">
        <g id="Слой_1" data-name="Слой 1">
            <g id="ZnN0cn.tif">
                <path class="cls-1"
                      d="M36.76,87.9c-.16,5.83,7.31,16.26,18.8,13,3.64-1,7.11-2.63,10.69-3.87a9.79,9.79,0,0,1,9.18.89,16,16,0,0,0,8.72,2.7c6,.07,9.21-1.74,11-7.16.16-.52.36-1,.49-1.55,1.68-7,1.63-13.06-5.79-18.14-2.59-1.77-4.6-4.4-6.83-6.69-1.77-1.82-3.3-3.9-5.22-5.54-2.91-2.46-6-4.76-10.21-4.3a15.08,15.08,0,0,0-8.33,3.23c-3.21,2.74-6.17,5.77-9.28,8.63-2.16,2-4.18,4.26-6.64,5.79C38.89,77.65,37,81.53,36.76,87.9Zm-3.29-22c.07.83.09,1.74.21,2.64.64,4.69,4.47,6.69,8.62,4.46,3.76-2,5.51-5.36,6.14-9.49a9.56,9.56,0,0,0-4.14-9.39c-2.86-1.75-5.68-1.26-7.61,1.51A17.4,17.4,0,0,0,33.47,65.92ZM48.13,50.47l.44.15a26.84,26.84,0,0,0,.2,3.24,15.56,15.56,0,0,0,.9,3.29,4.8,4.8,0,0,0,5.13,3.2,7.71,7.71,0,0,0,7.28-6.23,13.08,13.08,0,0,0-1.76-10.41c-2.9-4.43-7.7-4.31-10.23.33C49,46,48.76,48.31,48.13,50.47ZM77.06,44.2a31.15,31.15,0,0,0-.48-4.11,6.82,6.82,0,0,0-6.5-5.29c-3.65.12-5.53,1.84-6.25,5.73-.06.3-.16.59-.2.88-.4,3.58-.53,7.12,1.64,10.3,2.47,3.63,6.58,3.81,9.41.46C76.65,49.84,77.12,47.13,77.06,44.2Zm13.72,9.32c-.42-3.65-1.22-7.52-5-9.91a4.8,4.8,0,0,0-7.09,2.25c-1.78,5.32-2,10.64,1.36,15.56,2.1,3.09,5.51,3.26,7.85.33A13.16,13.16,0,0,0,90.78,53.52ZM42.93,34.27c-2.29.89-7.37,13.62-7.08,17.59.75-.19,1.65-.16,2.12-.59a3.72,3.72,0,0,1,3.64-.91c1.29.28,1.6-.39,1.54-1.66-.2-4.09-.26-8.18-.35-12.27C42.78,35.75,42.88,35.06,42.93,34.27Zm38.42,6.06a16.91,16.91,0,0,1,3.39.4c1.55.48,2.29.12,2.41-1.51a26.22,26.22,0,0,0-2.39-14.07c-.23-.47-.8-.79-1.2-1.17C82.8,29.6,82.08,34.94,81.35,40.33Zm-15.53-7.8.45.28a5.86,5.86,0,0,0,1.4-.68,2.88,2.88,0,0,1,3.18-.46c1.58.62,2.32-.16,2.27-1.69q-.14-4.07-.45-8.13c-.13-1.76-.41-3.51-.62-5.27l-.71-.07C68.82,21.62,67.31,27.07,65.82,32.53Zm-8.89-8.86c-2.48,1.54-7.27,13-6.55,16.44,2-1.43,3.8-3.24,6.55-2.43Zm37.22,14.2-.35.19V53.77a30.27,30.27,0,0,1,3.62-.24c1.38.08,1.81-.51,1.47-1.7q-1.8-6.21-3.71-12.4A6.9,6.9,0,0,0,94.15,37.87Z"/>
                <path class="cls-1"
                      d="M102,68c-.24,1-.47,1.95-.73,2.92-.55,2-1.48,3.71-3.84,4a5.69,5.69,0,0,1-5.91-3,15.79,15.79,0,0,1,.14-14c1.17-2.54,4.18-2.87,6.23-.93a11.21,11.21,0,0,1,3.78,7.56,6.51,6.51,0,0,0,.33,1.18Z"/>
                <path class="cls-1"
                      d="M36.76,87.9c.23-6.37,2.13-10.25,6.54-13,2.46-1.53,4.48-3.8,6.64-5.79,3.11-2.86,6.07-5.89,9.28-8.63a15.08,15.08,0,0,1,8.33-3.23c4.18-.46,7.3,1.84,10.21,4.3,1.92,1.64,3.45,3.72,5.22,5.54,2.23,2.29,4.24,4.92,6.83,6.69,7.42,5.08,7.47,11.12,5.79,18.14-.13.52-.33,1-.49,1.55-1.75,5.42-5,7.23-11,7.16a16,16,0,0,1-8.72-2.7A9.79,9.79,0,0,0,66.25,97c-3.58,1.24-7,2.84-10.69,3.87C44.07,104.16,36.6,93.73,36.76,87.9Z"/>
                <path class="cls-1"
                      d="M33.47,65.92a17.4,17.4,0,0,1,3.22-10.27c1.93-2.77,4.75-3.26,7.61-1.51a9.56,9.56,0,0,1,4.14,9.39C47.81,67.66,46.06,71,42.3,73c-4.15,2.23-8,.23-8.62-4.46C33.56,67.66,33.54,66.75,33.47,65.92Z"/>
                <path class="cls-1"
                      d="M48.13,50.47c.63-2.16.91-4.5,2-6.43,2.53-4.64,7.33-4.76,10.23-.33a13.08,13.08,0,0,1,1.76,10.41,7.71,7.71,0,0,1-7.28,6.23,4.8,4.8,0,0,1-5.13-3.2,15.56,15.56,0,0,1-.9-3.29,26.84,26.84,0,0,1-.2-3.24Z"/>
                <path class="cls-1"
                      d="M77.06,44.2c.06,2.93-.41,5.64-2.38,8-2.83,3.35-6.94,3.17-9.41-.46-2.17-3.18-2-6.72-1.64-10.3,0-.29.14-.58.2-.88.72-3.89,2.6-5.61,6.25-5.73a6.82,6.82,0,0,1,6.5,5.29A31.15,31.15,0,0,1,77.06,44.2Z"/>
                <path class="cls-1"
                      d="M90.78,53.52a13.16,13.16,0,0,1-2.86,8.23c-2.34,2.93-5.75,2.76-7.85-.33-3.35-4.92-3.14-10.24-1.36-15.56a4.8,4.8,0,0,1,7.09-2.25C89.56,46,90.36,49.87,90.78,53.52Z"/>
                <path class="cls-1"
                      d="M42.93,34.27c0,.79-.15,1.48-.13,2.16.09,4.09.15,8.18.35,12.27.06,1.27-.25,1.94-1.54,1.66a3.72,3.72,0,0,0-3.64.91c-.47.43-1.37.4-2.12.59C35.56,47.89,40.64,35.16,42.93,34.27Z"/>
                <path class="cls-1"
                      d="M81.35,40.33C82.08,34.94,82.8,29.6,83.56,24c.4.38,1,.7,1.2,1.17a26.22,26.22,0,0,1,2.39,14.07c-.12,1.63-.86,2-2.41,1.51A16.91,16.91,0,0,0,81.35,40.33Z"/>
                <path class="cls-1"
                      d="M65.82,32.53c1.49-5.46,3-10.91,5.52-16l.71.07c.21,1.76.49,3.51.62,5.27q.31,4.06.45,8.13c0,1.53-.69,2.31-2.27,1.69a2.88,2.88,0,0,0-3.18.46,5.86,5.86,0,0,1-1.4.68Z"/>
                <path class="cls-1"
                      d="M56.93,23.67v14c-2.75-.81-4.55,1-6.55,2.43C49.66,36.69,54.45,25.21,56.93,23.67Z"/>
                <path class="cls-1"
                      d="M94.15,37.87a6.9,6.9,0,0,1,1,1.56q1.92,6.18,3.71,12.4c.34,1.19-.09,1.78-1.47,1.7a30.27,30.27,0,0,0-3.62.24V38.06Z"/>
            </g>
            <path class="cls-1" d="M10,17.11h0L10,17Z"/>
            <path class="cls-1" d="M.28,15.05c0,.09,0,.18,0,.27l8.42,8.81c0-.83,0-1.67,0-2.51Z"/>
            <path class="cls-1" d="M8.75,33.22,0,26.89c0,.36,0,.73,0,1.09l8.86,8.86C8.82,35.63,8.78,34.43,8.75,33.22Z"/>
            <path class="cls-1" d="M11.44,7.67l7,7.33,2.75-.6-8-7.09Z"/>
            <path class="cls-1" d="M8.69,29.69c0-.51,0-1,0-1.53L3.2,23.58Z"/>
            <path class="cls-1"
                  d="M137.61,13.82c.38-3.25-1.13-4.24-4.05-4.9C114.45,4.59,95.25,1,75.6.42A16.6,16.6,0,0,1,73.11,0H62.28C55,.63,47.65.79,40.47,2c-7.53,1.28-15,2.77-22.5,4.31l5.75,7.56C41.59,10.23,59.65,8.21,78,9a223.34,223.34,0,0,1,50.66,8.36c2.59,41-8.69,76.41-39.08,104.57-5.88,5.45-12.68,9.92-19.17,14.68a3.62,3.62,0,0,1-3.27,0c-29.59-19-48.77-45.25-56-80A120.6,120.6,0,0,1,9,39.31L.17,32.43A145,145,0,0,0,2.51,52.51c7.72,40.68,29.69,71.68,64.27,94.06a3.41,3.41,0,0,0,4.53-.14c7.44-5.79,15.36-11.06,22.26-17.42,24.2-22.33,38.25-50.09,42.73-82.68.8-5.86,1.23-11.76,1.83-17.65V19.12C137.93,17.35,137.41,15.55,137.61,13.82Z"/>
            <path class="cls-1" d="M14.16,16l1-.24L10.23,11.6Z"/>
        </g>
    </g>
</svg>