<?xml version="1.0" encoding="UTF-8"?>
<svg width="13px" height="12px" viewBox="0 0 13 12" version="1.1" xmlns="http://www.w3.org/2000/svg" xmlns:xlink="http://www.w3.org/1999/xlink">
    <!-- Generator: Sketch 48.2 (47327) - http://www.bohemiancoding.com/sketch -->
    <title>cross</title>
    <desc>Created with Sketch.</desc>
    <defs></defs>
    <g id="Page-1" stroke="none" stroke-width="1">
        <g id="cross" transform="translate(1.000000, 0.000000)" fill-rule="nonzero">
            <path d="M8.56545493,0.625142259 C9.2789608,-0.185987702 10.6699434,-0.196279597 11.4465002,0.527369258 C12.1986088,1.29861813 12.1934617,2.71375367 11.3744419,3.43611603 C10.5058821,4.30256493 9.63860893,5.17030031 8.7713358,6.0380357 C9.51057677,6.77840888 10.2511045,7.51749558 10.9909888,8.25722552 C11.4452135,8.70813916 11.6092748,9.3899772 11.5275658,10.0126368 C11.4625847,10.5066478 11.2155277,11.0025885 10.7761007,11.2631021 C9.94614346,11.7577562 8.76297189,11.606594 8.12667135,10.8630046 C7.4298933,10.1650855 6.73375864,9.46652316 6.03440709,8.77246351 C5.16906409,9.64277186 4.29793069,10.507291 3.43194431,11.3769561 C2.73902654,12.1610699 1.42010227,12.1919456 0.627460947,11.5435562 C-0.0126998585,10.977502 -0.152312818,9.98304763 0.159725363,9.21115552 C0.265882683,8.93005814 0.47047679,8.70620943 0.686008317,8.50358775 C1.53333674,7.65772265 2.38066516,6.81057105 3.22735021,5.96341946 C2.51191421,5.24813277 1.79712159,4.53220283 1.08039884,3.81820263 C0.293547924,3.09969972 0.219559489,1.71093716 0.962660725,0.937758565 C1.74372125,0.226331334 3.10382169,0.305450276 3.81475404,1.08184509 C4.52954666,1.79841827 5.24562603,2.51306172 5.96106203,3.22834841 C6.83090867,2.36254276 7.6981818,1.49416413 8.56545493,0.625142259 Z"></path>
        </g>
    </g>
</svg>