<svg xmlns="http://www.w3.org/2000/svg" viewBox="0 0 120.14 98.47">

    <title>delivery</title>
    <g id="Layer_2" data-name="Layer 2">
        <g id="Слой_1" data-name="Слой 1">
            <path class="cls-1"
                  d="M44.57,43.07l-7.9-3.14A3.57,3.57,0,0,0,34,46.57l7.9,3.14a3.57,3.57,0,1,0,2.64-6.64Z"/>
            <path class="cls-1"
                  d="M117.88,5.52,106.67,1.07A15,15,0,0,0,87.16,9.49L62.32,72.05a13.27,13.27,0,0,0-8.64,2.09L66.24,42.52a3.57,3.57,0,0,0-2-4.64L25.92,22.67a3.57,3.57,0,0,0-4.64,2L7.23,60l-2.34-.92a3.57,3.57,0,1,0-2.63,6.64l44,17.48.39.13,1.15.46A13.24,13.24,0,0,0,56,97.52a13.07,13.07,0,0,0,10.14-.15,13.11,13.11,0,0,0,7.06-7.27A13.27,13.27,0,0,0,69,74.68L93.8,12.13A7.88,7.88,0,0,1,104,7.71l11.22,4.45a3.57,3.57,0,1,0,2.63-6.64ZM45.55,75.26,13.87,62.68l12.73-32L58.28,43.2Z"/>
        </g>
    </g>
</svg>