<svg xmlns="http://www.w3.org/2000/svg" viewBox="0 0 92.09 118.94">

    <title>flower</title>
    <g id="Layer_2" data-name="Layer 2">
        <g id="Слой_1" data-name="Слой 1">
            <path class="cls-1"
                  d="M66.06,94.92a22,22,0,0,0-18,9.41V87.74l5.44-5.43,9.72,4,3.94-9.5.09.08H78.07V66.27l9.82-4.06-4.14-10-.11-.05,7.27-7.28-7.43-7.44,4-9.73L78,23.76l.07-.08V12.84H67.45L63.38,3l-10,4.15,0,.11L46,0,38.6,7.44l-9.73-4-3.94,9.5-.08-.08H14V23.47L4.19,27.54l4.15,10,.11,0L1.17,44.87l7.44,7.45L4.58,62,14.09,66l-.08.08V76.9H24.64l4.07,9.82,10-4.15,0-.11L44,87.74v16.59a22,22,0,0,0-18-9.41H0v2a22,22,0,0,0,22,22H70.07a22,22,0,0,0,22-22v-2Zm-17-28.27c-.51.07-1,.12-1.41.16s-1,.07-1.45.07H46c-.62,0-1.22,0-1.82-.09s-1-.11-1.53-.2l-1.09-.17-1-.27a21.6,21.6,0,0,1-5.78-2.42c-.34-.2-.67-.38-1-.6L33.53,63l-.54-.4a22.2,22.2,0,0,1-5.8-6.41,21.83,21.83,0,0,1-2.91-8.21h0c-.07-.51-.12-1-.16-1.41a14.63,14.63,0,0,1-.1-1.65c0-.56,0-1.17.09-1.75s.11-1,.2-1.64l.17-1.07c.07-.36.18-.71.27-1.07a21.7,21.7,0,0,1,2.43-5.77c.2-.33.38-.67.6-1l.07-.1c.16-.23.33-.44.5-.67A22.13,22.13,0,0,1,34.74,26a21.37,21.37,0,0,1,5.79-2.43l1.08-.28c.4-.08.8-.13,1.2-.18l.16,0c.49-.07.94-.11,1.38-.15s1.07-.08,1.61-.08H46c.63,0,1.25,0,1.86.09s1,.11,1.51.2l1.09.17,1,.27A21.66,21.66,0,0,1,57.32,26c.33.2.67.39,1,.61l.24.17.54.4a22.07,22.07,0,0,1,8.71,14.61v0c.07.5.12.95.16,1.4s.08,1.11.08,1.67,0,1.18-.09,1.75-.11,1.06-.2,1.64l-.16,1.08c-.08.36-.18.71-.28,1.06a21.53,21.53,0,0,1-2.42,5.77c-.2.34-.39.68-.6,1l-.07.1c-.16.23-.34.45-.51.67a22.07,22.07,0,0,1-6.4,5.81,21.73,21.73,0,0,1-5.78,2.42l-1.08.28c-.4.08-.8.13-1.2.18Zm14.1,9.21L61.06,81.1l-5.23-2.17-1.78-4.26v-5a26.06,26.06,0,0,0,4.15-1.75l2.91,2.9Zm10.86-3H68.89L64.5,68.51l-1.6-3.85.09-.09a25.76,25.76,0,0,0,3.07-3.11l3,1.23,5,5ZM77.87,62,71.3,59.3,69,57a26.15,26.15,0,0,0,1.77-4.15h4.14l5.74,2.38,2,4.78Zm3.38-13.15H75.74L72,47.31c.07-.81.12-1.62.12-2.44,0-.66,0-1.34-.1-2.07l4.66-1.93h4.62l4,4ZM77.05,27.7l5.22,2.16L80.1,35.09l-4.26,1.77h-5A26.53,26.53,0,0,0,69,32.72l2.9-2.91Zm-3-10.86V22l-4.39,4.39L65.83,28l-.13-.14a26.44,26.44,0,0,0-3.06-3l1.22-3,5-5ZM61.21,8.25l2,4.79-2.72,6.57L58.2,21.88a27.06,27.06,0,0,0-4.15-1.76V16l2.38-5.73ZM42,9.67l4-4,4,4v5.51L48.48,19c-.8-.07-1.61-.12-2.44-.12-.66,0-1.34,0-2.07.09L42,14.28Zm-13.17,4.2L31,8.65l5.23,2.16L38,15.08v5a25.21,25.21,0,0,0-4.15,1.76L31,19ZM18,16.84h5.17l4.4,4.4,1.6,3.84-.09.09A26.61,26.61,0,0,0,26,28.28l-3-1.23-5-5ZM14.21,27.72l6.57,2.72,2.28,2.28a25.65,25.65,0,0,0-1.77,4.14H17.15l-5.74-2.38-2-4.78ZM10.84,40.87h5.51l3.79,1.57c-.07.8-.12,1.61-.12,2.43,0,.66,0,1.34.1,2.07l-4.67,1.93H10.84l-4-4ZM15,62,9.82,59.88,12,54.65l4.26-1.77h5A26.1,26.1,0,0,0,23.05,57l-2.91,2.9ZM18,72.9V67.72l4.39-4.39,3.85-1.6.13.14a25.67,25.67,0,0,0,3.06,3l-1.22,3-5,5Zm12.86,8.59-2-4.79,2.72-6.57,2.27-2.27A24.85,24.85,0,0,0,38,69.62v4.15L35.66,79.5ZM42,74.56l1.57-3.79c.33,0,.66,0,1,0s.94.07,1.39.07H46c.33,0,.64,0,1-.05s.73,0,1.12,0l1.93,4.66v4.61l-4,4-4-4Z"/>
        </g>
    </g>
</svg>