<?xml version="1.0" encoding="UTF-8"?>
<svg width="121px" height="110px" viewBox="0 0 121 110" version="1.1" xmlns="http://www.w3.org/2000/svg" xmlns:xlink="http://www.w3.org/1999/xlink">
    <!-- Generator: Sketch 48.2 (47327) - http://www.bohemiancoding.com/sketch -->
    <title>fri</title>
    <desc>Created with Sketch.</desc>
    <defs></defs>
    <g id="Page-1" stroke="none" stroke-width="1" fill="none" fill-rule="evenodd">
        <g id="fri" transform="translate(1.000000, 0.000000)">
            <g id="Shape">
                <path d="M5.66,9.16 C6.10931536,9.14262478 6.52894122,8.93098739 6.81,8.58 L9.1,6 L9.1,19.46 C9.15306231,20.2267138 9.76328624,20.8369377 10.53,20.89 C11.3103759,20.8519482 11.9404392,20.2390295 12,19.46 L12,2.29 C11.9447939,1.50893994 11.3122856,0.893642721 10.53,0.86 C9.96036239,0.951795819 9.44811599,1.25986009 9.1,1.72 L4.66,6.72 C4.40347533,6.99235926 4.25121336,7.34645687 4.23,7.72 C4.20335402,8.10770037 4.34507524,8.48807903 4.61890838,8.76382709 C4.89274153,9.03957515 5.27212336,9.18394362 5.66,9.16 Z" fill="#231F20" fill-rule="nonzero"></path>
                <path d="M21.69,21.17 C24.69,21.17 27.41,18.46 27.41,14.74 C27.41,11.02 25,8.58 22.26,8.58 C20.8735028,8.4964138 19.5181327,9.01378628 18.54,10 C19.002196,6.82895991 21.3120642,4.23970385 24.41,3.42 C24.7503192,3.38483627 25.062397,3.21489391 25.2765825,2.94810146 C25.490768,2.681309 25.5892324,2.33987417 25.55,2 C25.4780169,1.19562805 24.8075554,0.577073271 24,0.57 C23.6112582,0.561023025 23.2234329,0.611608929 22.85,0.72 C18.85,2.29 15.7,5.44 15.7,12.59 C15.68,18.31 18.54,21.17 21.69,21.17 Z M21.4,11.17 C23.12,11.17 24.27,12.31 24.27,14.75 C24.27,17.19 23.12,18.32 21.69,18.32 C20.26,18.32 18.69,16.89 18.54,12.6 C19.2565391,11.7493935 20.2899598,11.2290698 21.4,11.16 L21.4,11.17 Z" fill="#231F20" fill-rule="nonzero"></path>
                <path d="M36.29,21.17 C39.72,21.17 42.29,18.6 42.29,10.87 C42.29,3.14 39.72,0.57 36.29,0.57 C32.86,0.57 30.29,3.15 30.29,10.87 C30.29,18.59 32.85,21.17 36.29,21.17 Z M36.29,3.43 C38,3.43 39.44,4.86 39.44,10.87 C39.44,16.88 38,18.31 36.29,18.31 C34.58,18.31 33.14,16.88 33.14,10.87 C33.14,4.86 34.57,3.43 36.29,3.43 Z" fill="#231F20" fill-rule="nonzero"></path>
                <path d="M46,13.16 L52.87,13.16 C53.6367138,13.1069377 54.2469377,12.4967138 54.3,11.73 C54.2427625,10.9651943 53.6348057,10.3572375 52.87,10.3 L46,10.3 C45.2351943,10.3572375 44.6272375,10.9651943 44.57,11.73 C44.6230623,12.4967138 45.2332862,13.1069377 46,13.16 Z" fill="#231F20" fill-rule="nonzero"></path>
                <path d="M56.9,9.16 C57.3318939,9.12988406 57.7311624,8.91936063 58,8.58 L60.33,6 L60.33,19.46 C60.33,20.2497672 60.9702328,20.89 61.76,20.89 C62.5497672,20.89 63.19,20.2497672 63.19,19.46 L63.19,2.29 C63.1412074,1.52134963 62.5286504,0.908792623 61.76,0.86 C61.1921364,0.956613905 60.6815403,1.26368571 60.33,1.72 L55.9,6.72 C55.6434753,6.99235926 55.4912134,7.34645687 55.47,7.72 C55.443354,8.10770037 55.5850752,8.48807903 55.8589084,8.76382709 C56.1327415,9.03957515 56.5121234,9.18394362 56.9,9.16 Z" fill="#231F20" fill-rule="nonzero"></path>
                <path d="M66.92,3.72 L73.21,3.72 L67.77,18.46 C67.6377851,18.7812034 67.5438062,19.1168422 67.49,19.46 C67.4906209,20.1315006 67.9615272,20.710771 68.6187522,20.8484983 C69.2759772,20.9862256 69.939833,20.6447547 70.21,20.03 L76.5,3 C76.5964894,2.7759397 76.6442122,2.53391697 76.64,2.29 C76.5912074,1.52134963 75.9786504,0.908792623 75.21,0.86 L66.92,0.86 C66.1493869,0.908272348 65.5336412,1.51974199 65.48,2.29 C65.5378602,3.05831995 66.1512955,3.66749525 66.92,3.72 Z" fill="#231F20" fill-rule="nonzero"></path>
                <path d="M84.66,21.17 C88.09,21.17 90.66,18.6 90.66,10.87 C90.66,3.14 88.09,0.57 84.66,0.57 C81.23,0.57 78.66,3.15 78.66,10.87 C78.66,18.59 81.23,21.17 84.66,21.17 Z M84.66,3.43 C86.38,3.43 87.81,4.86 87.81,10.87 C87.81,16.88 86.38,18.31 84.66,18.31 C82.94,18.31 81.51,16.88 81.51,10.87 C81.51,4.86 82.94,3.43 84.66,3.43 Z" fill="#231F20" fill-rule="nonzero"></path>
                <path d="M96.68,6.87 C98.568618,6.84313082 100.093131,5.318618 100.12,3.43 C100.021487,1.6048395 98.5128172,0.175404962 96.685,0.175404962 C94.8571828,0.175404962 93.3485135,1.6048395 93.25,3.43 C93.271498,5.31699969 94.7930709,6.84300863 96.68,6.87 Z M96.68,2 C97.4467138,2.05306231 98.0569377,2.66328624 98.11,3.43 C98.11,4.21976719 97.4697672,4.86 96.68,4.86 C95.8902328,4.86 95.25,4.21976719 95.25,3.43 C95.3072375,2.66519426 95.9151943,2.05723753 96.68,2 Z" fill="#231F20" fill-rule="nonzero"></path>
                <path d="M109.13,21.17 C111.462671,21.331786 113.622097,19.9342705 114.43,17.74 C114.515782,17.4610859 114.562888,17.1717207 114.57,16.88 C114.60047,16.5164407 114.479112,16.1564831 114.234737,15.8855869 C113.990362,15.6146908 113.644766,15.457017 113.28,15.45 C112.711846,15.4365633 112.196117,15.7803826 111.99,16.31 C111.607053,17.5528729 110.428814,18.3768169 109.13,18.31 C106.99,18.31 105.56,16.88 105.56,10.87 C105.56,4.86 106.99,3.43 109.13,3.43 C110.27428,3.37498438 111.320676,4.07258188 111.71,5.15 C111.916968,5.6776343 112.433511,6.01799215 113,6 C113.363009,5.99026981 113.705975,5.83142082 113.94817,5.56084418 C114.190364,5.29026754 114.310392,4.93186491 114.28,4.57 C114.272888,4.27827934 114.225782,3.98891406 114.14,3.71 C113.33853,1.68204156 111.315241,0.407369262 109.14,0.56 C105.28,0.56 102.7,3.14 102.7,10.86 C102.7,18.58 105.27,21.17 109.13,21.17 Z" fill="#231F20" fill-rule="nonzero"></path>
                <path d="M5.89,104.31 C8.97877579,107.500318 13.2499865,109.270337 17.69,109.2 L101.11,109.2 C110.325346,109.194483 117.794483,101.725346 117.8,92.51 L1,92.51 C0.929662937,96.9500135 2.6996816,101.221224 5.89,104.31 Z" fill="#000000" fill-rule="nonzero"></path>
                <path d="M5.89,43.66 C8.97877579,46.8503184 13.2499865,48.6203371 17.69,48.55 L101.11,48.55 C105.550243,48.6215385 109.821912,46.8513297 112.91,43.66 C116.100318,40.5712242 117.870337,36.3000135 117.8,31.86 L1,31.86 C0.929662937,36.3000135 2.6996816,40.5712242 5.89,43.66 Z" stroke="#000000" stroke-width="4"></path>
                <path d="M116.07,39.86 L2.73,39.86" stroke="#000000" stroke-width="4"></path>
                <path d="M53.52,85.71 C54.0669323,86.4808244 54.7124161,87.1767365 55.44,87.78 C56.1750207,88.4031287 56.9573784,88.9681649 57.78,89.47 C58.6539718,89.9852375 59.5553011,90.4525934 60.48,90.87 L60.53,90.87 C59.8588339,89.7138403 59.471561,88.4149338 59.4,87.08 C59.4018385,86.5113793 59.5425866,85.9518197 59.81,85.45 C60.0941078,84.9326152 60.4624919,84.4662207 60.9,84.07 C61.34,83.67 61.84,83.26 62.38,82.86 C62.92,82.46 63.46,82 64,81.55 C64.527879,81.0888836 65.0224487,80.5909721 65.48,80.06 C65.9503701,79.4961016 66.3161254,78.8526432 66.56,78.16 C66.8525753,77.3798462 67.001641,76.5532091 67,75.72 C67.0055581,74.6652329 66.8469956,73.6160211 66.53,72.61 C66.2496335,71.7051434 65.8386303,70.8460794 65.31,70.06 C64.7505236,69.2961539 64.098934,68.6042598 63.37,68 C62.6237073,67.374756 61.8314758,66.8064887 61,66.3 C60.1271953,65.7826568 59.2257474,65.3152394 58.3,64.9 L58.25,64.9 C58.9056324,66.0615431 59.285416,67.3582818 59.36,68.69 C59.3748286,69.2545714 59.2512318,69.8141904 59,70.32 C58.7128752,70.8381368 58.3410749,71.3045771 57.9,71.7 C57.4290944,72.1300128 56.9350233,72.5339494 56.42,72.91 C55.88,73.32 55.34,73.76 54.8,74.22 C54.272121,74.6811164 53.7775513,75.1790279 53.32,75.71 C52.8567584,76.2788079 52.4917399,76.9209701 52.24,77.61 C51.9576487,78.3920427 51.818756,79.2186237 51.83,80.05 C51.8212063,81.1042432 51.9763934,82.153443 52.29,83.16 C52.5694825,84.0669982 52.9841448,84.9266639 53.52,85.71 Z" fill="#000000" fill-rule="nonzero"></path>
                <path d="M71.14,93.2 C71.0430281,93.0933768 70.9040332,93.0348527 70.76,93.04 L48,93.04 C47.704004,93.0453346 47.4653346,93.284004 47.46,93.58 L47.46,94.66 C47.457472,94.8035405 47.5155597,94.9414988 47.62,95.04 C47.7169719,95.1466232 47.8559668,95.2051473 48,95.2 L70.76,95.2 C70.9040332,95.2051473 71.0430281,95.1466232 71.14,95.04 C71.2444403,94.9414988 71.302528,94.8035405 71.3,94.66 L71.3,93.58 C71.3051473,93.4359668 71.2466232,93.2969719 71.14,93.2 Z" fill="#000000" fill-rule="nonzero"></path>
                <path d="M33.52,85.71 C34.0669323,86.4808244 34.7124161,87.1767365 35.44,87.78 C36.1750207,88.4031287 36.9573784,88.9681649 37.78,89.47 C38.6539718,89.9852375 39.5553011,90.4525934 40.48,90.87 L40.53,90.87 C39.8588339,89.7138403 39.471561,88.4149338 39.4,87.08 C39.4018385,86.5113793 39.5425866,85.9518197 39.81,85.45 C40.0941078,84.9326152 40.4624919,84.4662207 40.9,84.07 C41.34,83.67 41.84,83.26 42.38,82.86 C42.92,82.46 43.46,82 44,81.55 C44.527879,81.0888836 45.0224487,80.5909721 45.48,80.06 C45.9503701,79.4961016 46.3161254,78.8526432 46.56,78.16 C46.8525753,77.3798462 47.001641,76.5532091 47,75.72 C47.0055581,74.6652329 46.8469956,73.6160211 46.53,72.61 C46.2496335,71.7051434 45.8386303,70.8460794 45.31,70.06 C44.7505236,69.2961539 44.098934,68.6042598 43.37,68 C42.6237073,67.374756 41.8314758,66.8064887 41,66.3 C40.1271953,65.7826568 39.2257474,65.3152394 38.3,64.9 L38.25,64.9 C38.9056324,66.0615431 39.285416,67.3582818 39.36,68.69 C39.3748286,69.2545714 39.2512318,69.8141904 39,70.32 C38.7128752,70.8381368 38.3410749,71.3045771 37.9,71.7 C37.4290944,72.1300128 36.9350233,72.5339494 36.42,72.91 C35.88,73.32 35.34,73.76 34.8,74.22 C34.272121,74.6811164 33.7775513,75.1790279 33.32,75.71 C32.8567584,76.2788079 32.4917399,76.9209701 32.24,77.61 C31.9576487,78.3920427 31.818756,79.2186237 31.83,80.05 C31.8212063,81.1042432 31.9763934,82.153443 32.29,83.16 C32.5694825,84.0669982 32.9841448,84.9266639 33.52,85.71 Z" fill="#000000" fill-rule="nonzero"></path>
                <path d="M51.14,93.2 C51.0430281,93.0933768 50.9040332,93.0348527 50.76,93.04 L28,93.04 C27.704004,93.0453346 27.4653346,93.284004 27.46,93.58 L27.46,94.66 C27.457472,94.8035405 27.5155597,94.9414988 27.62,95.04 C27.7169719,95.1466232 27.8559668,95.2051473 28,95.2 L50.76,95.2 C50.9040332,95.2051473 51.0430281,95.1466232 51.14,95.04 C51.2444403,94.9414988 51.302528,94.8035405 51.3,94.66 L51.3,93.58 C51.3051473,93.4359668 51.2466232,93.2969719 51.14,93.2 Z" fill="#000000" fill-rule="nonzero"></path>
                <path d="M74.44,85.71 C74.9926274,86.4761774 75.6374775,87.1714065 76.36,87.78 C77.1002241,88.4009794 77.8857366,88.9658799 78.71,89.47 C79.5828047,89.9873432 80.4842526,90.4547606 81.41,90.87 C80.7388339,89.7138403 80.351561,88.4149338 80.28,87.08 C80.2818385,86.5113793 80.4225866,85.9518197 80.69,85.45 C80.9741078,84.9326152 81.3424919,84.4662207 81.78,84.07 C82.2494709,83.6423538 82.7400867,83.2385136 83.25,82.86 C83.8,82.45 84.34,82.01 84.88,81.55 C85.407879,81.0888836 85.9024487,80.5909721 86.36,80.06 C86.8232416,79.4911921 87.1882601,78.8490299 87.44,78.16 C87.725757,77.3785855 87.8680405,76.5519862 87.86,75.72 C87.8655581,74.6652329 87.7069956,73.6160211 87.39,72.61 C87.1105175,71.7030018 86.6958552,70.8433361 86.16,70.06 C85.6287104,69.2981537 85.0038179,68.6060684 84.3,68 C83.5761373,67.3776 82.8073885,66.8093944 82,66.3 C81.1260282,65.7847625 80.2246989,65.3174066 79.3,64.9 L79.25,64.9 C79.9124818,66.0592606 80.2959391,67.3568525 80.37,68.69 C80.3693849,69.2587736 80.2285635,69.8186245 79.96,70.32 C79.6758922,70.8373848 79.3075081,71.3037793 78.87,71.7 C78.43,72.1 77.93,72.51 77.39,72.91 C76.85,73.31 76.31,73.76 75.77,74.22 C75.242121,74.6811164 74.7475513,75.1790279 74.29,75.71 C73.8196299,76.2738984 73.4538746,76.9173568 73.21,77.61 C72.924243,78.3914145 72.7819595,79.2180138 72.79,80.05 C72.7844419,81.1047671 72.9430044,82.1539789 73.26,83.16 C73.5403665,84.0648566 73.9513697,84.9239206 74.48,85.71 L74.44,85.71 Z" fill="#000000" fill-rule="nonzero"></path>
                <path d="M92.07,93.2 C91.9730281,93.0933768 91.8340332,93.0348527 91.69,93.04 L69,93.04 C68.8559668,93.0348527 68.7169719,93.0933768 68.62,93.2 C68.51079,93.2959331 68.4487352,93.4346439 68.45,93.58 L68.45,94.66 C68.45128,94.8048127 68.5128912,94.9425318 68.62,95.04 C68.7169719,95.1466232 68.8559668,95.2051473 69,95.2 L91.69,95.2 C91.8340332,95.2051473 91.9730281,95.1466232 92.07,95.04 C92.1744403,94.9414988 92.232528,94.8035405 92.23,94.66 L92.23,93.58 C92.2351473,93.4359668 92.1766232,93.2969719 92.07,93.2 Z" fill="#000000" fill-rule="nonzero"></path>
            </g>
        </g>
    </g>
</svg>