<svg xmlns="http://www.w3.org/2000/svg" viewBox="0 0 112.95 114.21">
    <title>hands</title>
    <g id="Layer_2" data-name="Layer 2">
        <g id="Слой_1" data-name="Слой 1">
            <g id="hezJNr.tif">
                <path d="M36.1,55.77c-5,7.21-9.86,14.48-15,21.58-.81,1.12-2.76,2.3-3.94,2.09-3-.53-5.44-2.5-4.4-6a39.51,39.51,0,0,1,4-8c1.12-1.95,2.54-3.74,3.83-5.6L19.21,59,8.89,74.51c-6.47-2.66-3.15-9.94,4.49-19l-1.13-.9L3,66.22c-4-3.41-4-3.41,3.44-15.71L4.77,48.82,0,57.1c.66-9.79,5.31-17.42,13-22,6.68-4,13.61-7.55,20.52-11.12a4.85,4.85,0,0,1,3.66.25,20.48,20.48,0,0,1,4.05,2.88c3,2.4,7.45,4.4,8.34,7.44.8,2.72-2.65,6.52-3.74,10-1.27,4.08-2,8.32-3,12.51-.42,1.87-.74,3.76-1.18,6-3.16-1.62-7.14-1.87-4-7Z"/>
                <path d="M71.4,50.48l5,2.76-1.09,3.63c.67-.23,1.23-.23,1.4-.49C81.35,49,89.37,44.1,91.87,35.19c.21-.73,2.4-1.66,3.14-1.32,1.67.75,3.9,2,4.25,3.47a10.52,10.52,0,0,1-1,6.62c-1.66,3.36-4,6.38-6.07,9.59,4.67-2.26,6.39-4.63,10.9-15,5.42,3.53,5.41,3.6-1.43,18.8L109.87,47c7,7.36-2.29,11.11-3.52,17l6.6-7.19c-2.36,8.87-4.67,17.53-13.68,22-6.66,3.31-13.06,7.15-19.77,10.35-1.39.66-4,.09-5.39-.87a84.53,84.53,0,0,1-10.36-8.52c-.85-.82-1.28-3.28-.69-4.19,4.18-6.41,7-13.11,6.78-21C69.79,53.31,70.78,52,71.4,50.48Z"/>
                <path d="M50.13,42.59l3.39-6.25,3.71,1.29.87-1.37c-7.39-5-14.83-10-22.12-15.22-1-.71-2-3.14-1.64-3.63C35.82,15.58,38,12.85,39.71,13c2.91.26,5.7,2.34,8.45,3.82C49.86,17.74,51.38,19,53,20l1-1.45L39.24,9.05c3.58-5.52,6.12-5,19.2,4.53l.91-1.1L47.26,2.86C54.57-4.55,58.4,5.39,65.11,7.27L56.87,0c8.81,2.12,17.39,4.22,21.81,13C82,19.67,85.83,26.11,88.87,32.9c.73,1.63-.14,4.66-1.32,6.31-2.86,4-6.34,7.63-10,11.91C69.68,44.88,60.74,42.4,50.13,42.59Z"/>
                <path d="M55.53,77.44c6.74,4.64,14,9.54,21.15,14.7,1.07.78,2.12,3.59,1.66,4.11-1.54,1.71-4,4.13-5.69,3.85-3.1-.5-6-2.67-8.82-4.29-1.67-.94-3.17-2.18-4.74-3.28l-1,1.45,15.53,10.27c-3,6.09-9.8,3.34-19.22-4.76l-.89,1.09,12,9.89c-7.31,6.57-11-2-16.19-4.12l-1.81,1.78L56.13,113l-1,1.2c-7.45-3.28-16-4.66-20.39-13.11C31.19,94.19,27.35,87.42,24,80.42a6,6,0,0,1,.39-5.15A122.76,122.76,0,0,1,34,63.93a3.55,3.55,0,0,1,3.4-.31,35.16,35.16,0,0,0,21,6.63c1,0,2.1.8,4.74,1.88Z"/>
            </g>
        </g>
    </g>
</svg>