<svg xmlns="http://www.w3.org/2000/svg" viewBox="0 0 88.98 108.04">
    <title>headphones</title>
    <g id="Layer_2" data-name="Layer 2">
        <g id="Слой_1" data-name="Слой 1">
            <path class="cls-1"
                  d="M83.94,47V37.66C83.94,16.91,66.22,0,44.45,0S5,16.91,5,37.66V47a6.31,6.31,0,0,0-4,3.07A8.51,8.51,0,0,0,0,54.19v20.5a8.43,8.43,0,0,0,1,4.12A6.87,6.87,0,0,0,7.52,82.2h3.11a4,4,0,0,0,4,3.78h3.53a4,4,0,0,0,4-4V46.51a4,4,0,0,0-4-4H14.54a4,4,0,0,0-4,4v.17H8.9v-9C8.9,19.1,24.81,4,44.37,4S79.84,19.1,79.84,37.66v9H78.21v-.17a4,4,0,0,0-4-4H70.82a4,4,0,0,0-4,4V82.1A4,4,0,0,0,70.38,86a13,13,0,0,1-3.26,6.85c-3.15,3.49-8.29,5.5-15.22,6V98a4.22,4.22,0,0,0-4.38-4H38.91a4.22,4.22,0,0,0-4.38,4v6a4.21,4.21,0,0,0,4.38,4H47.6A4.21,4.21,0,0,0,52,104v-1.13c8.14-.54,14.28-3,18.2-7.31a17.16,17.16,0,0,0,4.4-9.6,4,4,0,0,0,3.77-3.76h3.11A6.87,6.87,0,0,0,88,78.83a8.43,8.43,0,0,0,1-4.12V54.19A8.49,8.49,0,0,0,88,50,6.28,6.28,0,0,0,83.94,47ZM18,46.49V82H14.65V78.35h0V50.61a4.09,4.09,0,0,0,0-.7V46.6Zm-7.39,4V78.19H7.52c-2.33,0-2.88-1-3.06-1.33A4.7,4.7,0,0,1,4,74.67V54.19A4.67,4.67,0,0,1,4.44,52c.18-.32.73-1.33,3.06-1.33Zm63.64.1V82H70.88V46.51h3.45Zm10.61,24.1a4.7,4.7,0,0,1-.44,2.19c-.18.32-.73,1.33-3.06,1.33H78.29V50.69h3.09c2.33,0,2.88,1,3.06,1.33a4.7,4.7,0,0,1,.44,2.19Z"/>
        </g>
    </g>
</svg>