<?xml version="1.0" encoding="UTF-8"?>
<svg width="201px" height="104px" viewBox="0 0 201 104" version="1.1" xmlns="http://www.w3.org/2000/svg" xmlns:xlink="http://www.w3.org/1999/xlink">
    <!-- Generator: Sketch 48.2 (47327) - http://www.bohemiancoding.com/sketch -->
    <title>logo</title>
    <desc>Created with Sketch.</desc>
    <defs></defs>
    <g id="Page-1">
        <g id="logo" transform="translate(-1.000000, 0.000000)" fill="#000000" fill-rule="nonzero">
            <g id="Shape">
                <path d="M201,51.63 C197.86,51.63 194.66,51.63 191.46,51.69 C191.1,51.69 190.62,52.39 190.46,52.86 C187.673333,60.1933333 184.906667,67.5566667 182.16,74.95 C182.047363,75.3429483 181.817024,75.6919468 181.5,75.95 L181.5,51.83 L171.16,51.83 C170.46,68.7 170.46,85.36 171.16,102.17 C174.47,102.27 177.67,102.4 180.88,102.42 C181.2,102.42 181.68,101.8 181.88,101.42 C184.79,93.74 187.65,86.04 190.52,78.35 C190.57,78.22 190.65,78.1 190.93,77.55 L190.93,102.31 L201,102.31 C201.9,97.81 201.94,58.38 201,51.63 Z"></path>
                <path d="M128.78,64.36 C128.08,57.79 124.4,53.19 117.91,52.48 C112.01,51.83 105.99,52.34 99.91,52.34 C99.91,52.82 99.78,53.34 99.77,53.89 C99.71,56.17 99.6433333,58.45 99.57,60.73 L112.21,60.8 C113.24386,60.8104703 114.275982,60.8872949 115.3,61.03 C117.97,61.48 119.56,63.78 119.43,66.69 C119.3,69.6 117.58,71.69 114.85,72 C113.971857,72.0701929 113.090425,72.0902255 112.21,72.06 L107.84,72.06 L107.84,81.67 C108.606797,81.6329797 109.371157,81.5562099 110.13,81.44 C112.143384,81.4929806 114.149522,81.7036251 116.13,82.07 C118.64,82.73 120.02,85.56 119.61,88.41 C119.319417,91.0907974 117.085841,93.1403815 114.39,93.2 C113.02,93.2 111.64,93.2 110.14,93.2 L99.66,93 C99.66,95.76 99.73,98.52 99.77,101.28 C99.77,102.02 99.77,102.61 100.87,102.61 C105.82,102.61 110.78,102.84 115.72,102.61 C122.319482,102.39699 127.835782,97.5229989 128.86,91 C129.78,85.76 128.86,81 125.31,76.77 C128.146061,73.2979249 129.403875,68.799519 128.78,64.36 Z"></path>
                <path d="M83.92,52.65 C83.56,52.65 83.07,53.36 82.92,53.83 C80.1266667,61.1633333 77.36,68.5266667 74.62,75.92 C74.5002164,76.3096184 74.2711525,76.656685 73.96,76.92 L73.96,52.8 L63.58,52.8 C62.88,69.66 62.87,86.33 63.58,103.14 C66.89,103.24 70.1,103.37 73.3,103.39 C73.63,103.39 74.11,102.76 74.3,102.39 C77.16,94.65 80,87 82.9,79.26 C82.9,79.13 83.02,79.01 83.3,78.47 L83.3,103.23 L93.41,103.23 C94.31,98.77 94.41,59.35 93.41,52.6 C90.31,52.6 87.11,52.56 83.92,52.65 Z"></path>
                <path d="M47.24,53 C43.94,52.52 40.53,52.83 37.16,52.8 C34.81,52.8 32.45,52.8 30.04,52.8 C29.36,69.8 29.36,86.5 30.04,103.35 L40.34,103.35 L40.34,82.84 C42.34,82.84 44.24,82.95 46.1,82.84 C52.1692454,82.5762336 57.2788973,78.213028 58.49,72.26 C58.8610879,70.5693588 59.0289431,68.84045 58.99,67.11 C58.84,59.4 54.53,54 47.24,53 Z M49.6,68.79 C49.3763148,71.3291453 47.2783541,73.2935602 44.73,73.35 C43.35,73.42 41.96,73.35 40.4,73.35 L40.4,62.1 C42.2572567,62.0877073 44.1127142,62.2180908 45.95,62.49 C48.62,63.08 50,65.63 49.6,68.79 Z"></path>
                <path d="M1.55,103.24 L11.73,103.24 L11.73,62.63 L24.44,62.63 L24.44,52.8 L1.55,52.8 C0.82,69.7 0.81,86.37 1.55,103.24 Z"></path>
                <path d="M152,72.19 C150.14,72.06 148.26,72.19 146.23,72.19 L146.23,61.34 L159.23,61.34 C159.23,58.02 158.57,54.79 158.57,51.5 L135.75,51.5 C135.01,68.41 135.01,85.08 135.75,101.95 L135.95,101.95 C135.95,102.06 135.95,102.16 135.95,102.27 C138.36,102.27 140.71,102.27 143.07,102.27 C146.43,102.27 149.85,102.56 153.14,102.07 C160.43,100.99 164.75,95.63 164.9,87.92 C164.934458,86.1897196 164.766654,84.4613375 164.4,82.77 C163.194544,76.8096185 158.075827,72.4421965 152,72.19 Z M151.85,92.53 C150.012142,92.7966273 148.157084,92.9269827 146.3,92.92 L146.3,81.65 C147.86,81.65 149.3,81.6 150.63,81.65 C153.174863,81.7059077 155.271521,83.6647972 155.5,86.2 C155.89,89.39 154.54,91.94 151.87,92.53 L151.85,92.53 Z"></path>
                <path d="M113.72,21.65 L106.25,27.9 C106.15,27.39 106,26.57 105.84,25.75 C105.68,24.93 105.53,23.99 105.32,23.13 C105.086422,22.0420041 104.424685,21.0938466 103.484015,20.4993433 C102.543345,19.90484 101.402951,19.7140508 100.32,19.97 C99.7,20.1 99.23,20.32 99.51,21.15 C100.51,24.28 101.51,27.44 102.51,30.56 C102.856131,31.2424756 102.637014,32.0759802 102,32.5 C99.76,34.22 97.6,36.03 95.35,37.73 C94.63,38.28 94.71,38.73 95.17,39.26 C95.465311,39.6428373 95.9112475,39.8798824 96.3937766,39.9105191 C96.8763057,39.9411559 97.3486413,39.7624138 97.69,39.42 C99.85,37.91 101.94,36.3 104.11,34.69 C107.38,38.87 110.76,37.3 114.11,34.46 C114.35,37.88 116.02,39.08 118.82,37.89 C120.087387,37.3305469 121.279948,36.6150104 122.37,35.76 C123.96,34.55 125.44,33.18 127.1,31.76 C126.81,33.96 126.4,36.2 128.88,37.17 C131.17,38.06 132.77,36.29 134.58,35.17 C134.44,36.66 135.37,37.28 136.39,37.82 C137.41,38.36 138.12,37.67 138.79,37.12 C140.86,35.4 142.86,33.6 144.92,31.87 C145.86,31.07 146.92,30.37 147.92,29.62 C147.801646,30.515747 147.569783,31.3927917 147.23,32.23 C146.963858,33.0794237 146.766554,33.9489006 146.64,34.83 C146.439733,35.702489 146.675055,36.617916 147.271257,37.2856631 C147.86746,37.9534102 148.750485,38.2905307 149.64,38.19 C150.924897,38.0918907 152.160526,37.6535528 153.22,36.92 C155.011862,35.4452102 156.721118,33.8728278 158.34,32.21 C158.525003,31.9863978 158.676583,31.7371343 158.79,31.47 L158.57,31.12 C158.097492,31.2817192 157.641979,31.4893794 157.21,31.74 C155.77,32.74 154.38,33.74 152.92,34.74 C152.57,34.97 152.01,34.87 151.55,34.93 C151.508831,34.5059838 151.529039,34.0782463 151.61,33.66 C152.276667,31.92 153.003333,30.1933333 153.79,28.48 C154.315613,27.3952493 154.058527,26.0934941 153.16,25.29 C152.434657,24.4334212 151.209444,24.2000473 150.22,24.73 C148.828656,25.3330677 147.490592,26.0522776 146.22,26.88 C144.38,28.11 142.66,29.52 140.64,31.04 C141.2,30.04 141.7,29.3 142.04,28.5 C142.794027,26.8793873 143.435544,25.2087679 143.96,23.5 C144.237843,22.642618 144.048133,21.702396 143.459573,21.0198293 C142.871012,20.3372627 141.968927,20.011305 141.08,20.16 C140.663302,20.2082024 140.29322,20.4487554 140.08,20.81 C139,23.73 138,26.67 137,29.64 C136.257129,31.6800847 134.730958,33.3394355 132.76,34.25 C132.255203,34.5488388 131.64466,34.6109899 131.09,34.42 C130.735366,33.9440472 130.627743,33.3279999 130.8,32.76 C131.287138,31.2796287 131.87175,29.8331323 132.55,28.43 C133.26,26.96 133.19,26.43 131.85,25.54 C130.51,24.65 129.77,24.81 128.69,25.87 C126.023333,28.5366667 123.3,31.1233333 120.52,33.63 C119.971251,33.9493926 119.36749,34.1630832 118.74,34.26 C118.704762,33.5845047 118.785945,32.9079802 118.98,32.26 C121.327015,27.6561323 125.417194,24.1816404 130.34,22.61 C131.89,22.05 132.06,21.61 131,20.33 C130.319219,19.3796523 129.148391,18.9113211 128,19.13 C127.113292,19.2463867 126.241635,19.457596 125.4,19.76 C120.4,21.82 117.25,25.76 115.15,30.58 C114.333169,32.386385 112.844497,33.8033139 111,34.53 C109.75,35.09 108.87,34.64 108,33.3 C107.33,32.3 107.13,31.47 108.27,30.47 C110.167174,28.7594982 111.973005,26.9503292 113.68,25.05 C115,23.66 114.79,22.38 113.72,21.65 Z M82.55,30.65 C83.42,28.77 84.44,26.83 85.19,24.79 C85.5278714,23.7876876 85.583228,22.7116937 85.35,21.68 C85.04,20.35 83.8,20.1 82.56,20.1 C81.32,20.1 81.74,21.05 81.56,21.66 C81.45,22 81.35,22.35 81.22,22.66 C79.65,26.66 78.11,30.73 76.48,34.74 C76.0245586,35.6043289 76.3070517,36.673457 77.13,37.2 C78.37,38.2 79.04,38.2 80.44,37.05 C82.51,35.34 84.51,33.53 86.56,31.81 C87.51,31.01 88.56,30.31 89.67,29.45 C89.15,31.36 88.6,32.91 88.31,34.51 C87.85,37 89.6,38.76 92,38.16 C95.76,37.22 98,34.31 100.27,31.36 C99.7444897,31.298281 99.2139276,31.4220788 98.77,31.71 C97.41,32.65 96.11,33.71 94.77,34.57 C94.258274,34.7783382 93.7124244,34.8902204 93.16,34.9 C93.1246277,34.3906809 93.1616631,33.8789191 93.27,33.38 C93.91,31.76 94.63,30.17 95.34,28.59 C95.922497,27.4802202 95.6934501,26.1182091 94.78,25.26 C93.9652657,24.3662995 92.6391016,24.1584368 91.59,24.76 C90.7443441,25.0923592 89.9337146,25.5077231 89.17,26 C86.9,27.51 84.67,29.15 82.55,30.67 L82.55,30.65 Z"></path>
                <path d="M62.24,-6.51700915e-16 C64.4009673,1.58628424 65.0842398,4.51035098 63.85,6.89 C61.61,12.08 59.62,17.39 57.64,22.7 C57.1052285,24.312841 56.8317769,26.0008139 56.83,27.7 C57.77,26.61 58.69,25.51 59.65,24.45 C65.39,18.11 71.12,11.74 76.92,5.45 C78.1749375,4.16013256 79.5401238,2.98232481 81,1.93 C82.27,0.98 83.08,1.23 83.76,2.66 C84.7344744,4.35395887 84.7037748,6.44537323 83.68,8.11 C76.8961873,19.3173163 71.3311707,31.2184061 67.08,43.61 C66.55,45.14 65.78,45.3 64.68,44.07 C63.3334394,42.7830279 62.8675696,40.8255919 63.49,39.07 C66.4762718,30.1457792 70.4227341,21.5721988 75.26,13.5 C75.7117503,12.7832689 76.049126,12.0005571 76.26,11.18 C74.26,13.43 72.26,15.65 70.33,17.93 C66.27,22.71 62.24,27.52 58.18,32.31 C57.7805336,32.7945371 57.3460324,33.2490922 56.88,33.67 C55.28,35.11 53.61,34.67 52.77,32.67 C51.9756313,30.5073795 51.8467677,28.156489 52.4,25.92 C53.15,22.08 54.2,18.29 55.12,14.47 C55.1691667,14.2602014 55.1293519,14.03941 55.01,13.86 C54.77,14.25 54.52,14.62 54.31,15.02 L37.71,45.32 C37.05,46.53 36.66,46.63 35.56,45.77 C33.6583677,44.5329101 33.0828028,42.0092791 34.26,40.07 C41.094368,27.5005192 48.8348302,15.4453175 57.42,4 C58.5953099,2.60169398 59.8437185,1.26649755 61.16,-6.39488462e-14 L62.24,-6.51700915e-16 Z"></path>
                <path d="M146.22,26.84 C147.490592,26.0122776 148.828656,25.2930677 150.22,24.69 C151.209444,24.1600473 152.434657,24.3934212 153.16,25.25 C154.058527,26.0534941 154.315613,27.3552493 153.79,28.44 C153.03,30.1466667 152.303333,31.8733333 151.61,33.62 C151.529039,34.0382463 151.508831,34.4659838 151.55,34.89 C152.01,34.83 152.55,34.89 152.92,34.7 C154.38,33.7 155.77,32.7 157.21,31.7 C157.641979,31.4493794 158.097492,31.2417192 158.57,31.08 L158.79,31.43 C158.676583,31.6971343 158.525003,31.9463978 158.34,32.17 C156.721118,33.8328278 155.011862,35.4052102 153.22,36.88 C152.160526,37.6135528 150.924897,38.0518907 149.64,38.15 C148.750485,38.2505307 147.86746,37.9134102 147.271257,37.2456631 C146.675055,36.577916 146.439733,35.662489 146.64,34.79 C146.766554,33.9089006 146.963858,33.0394237 147.23,32.19 C147.569783,31.3527917 147.801646,30.475747 147.92,29.58 C146.92,30.33 145.92,31.03 144.92,31.83 C142.86,33.56 140.86,35.36 138.79,37.08 C138.12,37.63 137.4,38.32 136.39,37.78 C135.38,37.24 134.39,36.62 134.58,35.13 C132.77,36.27 131.17,38.04 128.88,37.13 C126.4,36.13 126.81,33.92 127.1,31.72 C125.44,33.14 123.96,34.51 122.37,35.72 C121.279948,36.5750104 120.087387,37.2905469 118.82,37.85 C116.02,39.04 114.35,37.85 114.11,34.42 C110.74,37.26 107.36,38.83 104.11,34.65 C101.94,36.26 99.85,37.87 97.69,39.38 C97.3486413,39.7224138 96.8763057,39.9011559 96.3937766,39.8705191 C95.9112475,39.8398824 95.465311,39.6028373 95.17,39.22 C94.71,38.66 94.63,38.22 95.35,37.69 C97.6,35.99 99.76,34.18 102,32.46 C102.651512,32.0484203 102.888565,31.2122717 102.55,30.52 C101.55,27.4 100.55,24.24 99.55,21.11 C99.27,20.28 99.74,20.11 100.36,19.93 C101.442951,19.6740508 102.583345,19.86484 103.524015,20.4593433 C104.464685,21.0538466 105.126422,22.0020041 105.36,23.09 C105.57,23.95 105.71,24.83 105.88,25.71 C106.05,26.59 106.19,27.35 106.29,27.86 L113.76,21.61 C114.83,22.34 115.05,23.61 113.76,25.01 C112.053005,26.9103292 110.247174,28.7194982 108.35,30.43 C107.21,31.43 107.41,32.22 108.08,33.26 C108.95,34.6 109.83,35.05 111.08,34.49 C112.928485,33.7793602 114.427694,32.3769903 115.26,30.58 C117.36,25.76 120.48,21.82 125.51,19.76 C126.351635,19.457596 127.223292,19.2463867 128.11,19.13 C129.258391,18.9113211 130.429219,19.3796523 131.11,20.33 C132.17,21.6 132,22.05 130.45,22.61 C125.486276,24.1701342 121.359471,27.6626007 119,32.3 C118.805945,32.9479802 118.724762,33.6245047 118.76,34.3 C119.38749,34.2030832 119.991251,33.9893926 120.54,33.67 C123.306667,31.13 126.03,28.5433333 128.71,25.91 C129.79,24.85 130.54,24.68 131.87,25.58 C133.2,26.48 133.28,27 132.57,28.47 C131.89175,29.8731323 131.307138,31.3196287 130.82,32.8 C130.647743,33.3679999 130.755366,33.9840472 131.11,34.46 C131.66466,34.6509899 132.275203,34.5888388 132.78,34.29 C134.751292,33.3658741 136.270888,31.6914377 137,29.64 C138,26.64 139,23.73 140.08,20.8 C140.29322,20.4387554 140.663302,20.1982024 141.08,20.15 C141.975246,19.9848358 142.891272,20.3036988 143.490454,20.9890644 C144.089636,21.6744299 144.283274,22.6248408 144,23.49 C143.475544,25.1987679 142.834027,26.8693873 142.08,28.49 C141.74,29.29 141.24,30.02 140.68,31.03 C142.68,29.51 144.42,28.1 146.26,26.87"></path>
                <path d="M163.93,25.78 C163.568687,26.2468998 163.234792,26.7343871 162.93,27.24 C161.62,29.76 160.35,32.29 159.04,34.8 C158.749182,35.4035503 158.364394,35.9571062 157.9,36.44 C157.524041,36.77039 157.049431,36.9672655 156.55,37 C155.34,37.08 155,36.56 155.55,35.49 C157.29,32.05 159.02,28.61 160.86,25.23 C161.506638,24.1273705 162.300619,23.118072 163.22,22.23 C164.51,20.94 165.78,21.11 166.46,22.77 C167.257386,24.8160285 167.92537,26.9101578 168.46,29.04 C169.05,31.29 169.46,33.58 169.97,35.86 C170.21855,36.4750612 170.045295,37.1801692 169.54,37.61 C168.82,38.16 168.18,38.08 167.89,37.24 C167.15,35.11 166.49,32.97 165.82,30.82 C165.44,29.62 165.13,28.4 164.74,27.2 C164.510523,26.7046736 164.239557,26.2296467 163.93,25.78 Z"></path>
                <path d="M82.55,30.67 C84.67,29.15 86.9,27.51 89.17,25.95 C89.929361,25.4761636 90.7331748,25.077606 91.57,24.76 C92.6191016,24.1584368 93.9452657,24.3662995 94.76,25.26 C95.6734501,26.1182091 95.902497,27.4802202 95.32,28.59 C94.61,30.17 93.89,31.76 93.25,33.38 C93.1416631,33.8789191 93.1046277,34.3906809 93.14,34.9 C93.6924244,34.8902204 94.238274,34.7783382 94.75,34.57 C96.14,33.68 97.44,32.65 98.75,31.71 C99.1939276,31.4220788 99.7244897,31.298281 100.25,31.36 C98.01,34.36 95.74,37.22 91.98,38.16 C89.55,38.76 87.8,37.02 88.24,34.55 C88.53,32.95 89.08,31.4 89.6,29.49 C88.46,30.35 87.44,31.05 86.49,31.85 C84.44,33.57 82.44,35.38 80.37,37.09 C78.97,38.26 78.3,38.25 77.06,37.24 C76.2370517,36.713457 75.9545586,35.6443289 76.41,34.78 C78.04,30.78 79.58,26.78 81.15,22.7 C81.28,22.37 81.38,22.02 81.49,21.7 C81.69,21.09 81.36,20.14 82.49,20.14 C83.62,20.14 84.97,20.39 85.28,21.72 C85.513228,22.7516937 85.4578714,23.8276876 85.12,24.83 C84.44,26.85 83.42,28.79 82.55,30.67 Z"></path>
            </g>
        </g>
    </g>
</svg>