<svg xmlns="http://www.w3.org/2000/svg" viewBox="0 0 124.48 74.48">
    <title>map</title>
    <g id="Layer_2" data-name="Layer 2">
        <g id="Слой_1" data-name="Слой 1">
            <g id="cEEsRZ.tif">
                <path d="M118.66,55.32h-2.6v13.8h-5.63v-8.2c-1.11,0-2.13-.08-3.13,0a14,14,0,0,1-9.57-2.24c-.79-.54-1.27-.26-2,.31a4.69,4.69,0,0,0-1.87,4.61,22.3,22.3,0,0,1,0,2.85c-1.45,0-2.78.06-4.09,0a2.59,2.59,0,0,0-2.48,1,4.23,4.23,0,0,1-4.12,1.76,57.94,57.94,0,0,0-6.72,0,3.37,3.37,0,0,1-3.26-1.34c-.32-.46-.69-.88-1-1.32l-.36.18v5.19c-2.94,0-5.74.11-8.52,0A4.43,4.43,0,0,0,59,73.74c-.62.9-1.29.92-2.26.39-2.17-1.2-4.66-2-6.15-4.11a41.54,41.54,0,0,1-3-5.2c-.45-.92-1-1.35-2-1.16a2.3,2.3,0,0,1-2.44-1A4.32,4.32,0,0,0,39,60.88c-2.83.15-5.67,0-8.6,0v2.63c-1.61.25-3,.28-4.1-1.14-.9-1.14-2.12-2-3.07-3.14a3,3,0,0,0-2.71-1.1c-2.18.08-4.37,0-6.65,0v5.42H11.13L8.34,71.9H5.55c0-1.53,0-3,0-4.52A3.54,3.54,0,0,0,5,65.72C3.61,63.5,2.19,61.29.65,59.16a4.5,4.5,0,0,1-.58-3.33c0-.28.52-.62.87-.74,2.38-.84,4.78-1.64,7.32-2.49-.5-2.06-1-4.06-1.47-6.05a12.6,12.6,0,0,0-.35-1.24C5.56,43,5.29,40.78,7.85,39.19a1.44,1.44,0,0,0,.41-1.13c-.27-2.81,1.66-4.81,2.63-7.15.1-.22.65-.35,1-.35,2.11,0,4.22-.06,6.34,0a1.77,1.77,0,0,0,1.76-1c1.42-2.22,2.87-4.41,4.39-6.55a2.08,2.08,0,0,1,1.42-.75c1.46-.1,2.93,0,4.53,0v8.28c1.59,0,3,.05,4.49,0a2.41,2.41,0,0,1,2,.86c1.48,1.57,3,3.08,4.58,4.66,1.76-.88,3.45-1.7,5.12-2.57a2.06,2.06,0,0,0,.73-.84c.54-1,1-2,1.52-3,1-2.12,1-2.12,3.68-1.77v5.37a36.15,36.15,0,0,0,2.77-2.74,11.58,11.58,0,0,1,6.56-4c.5-.12,1-.34,1.47-.47,1.87-.49,3.89-.84,2.91-3.67h5.61v5.32h5.49V25.27c2.84-1.23,4,1.05,5.6,2.46,1.66-.82,3.3-1.58,4.87-2.45a1.69,1.69,0,0,0,.62-1.21c.07-1.49,0-3,0-4.59h5.41V13.92l5.61,2.75c.83-2.46,1.6-4.86,2.46-7.22a4.85,4.85,0,0,1,1-1.73c2.46-2.53,5-5,7.65-7.72.84.93,1.6,1.74,2.33,2.58a4,4,0,0,1-.1,3.61c-.39.41-.8.8-1.19,1.19-1.26,1.26-1.34,1.58-.92,3.68L116,8.42v8.23l2.64.11v2.69l-2.51.11c-.2,1.46-.35,2.73,1,3.86,1.47,1.25,2.74,2.72,4.32,4.32l.13-2.67h2.67v2.66l-2.67.14c.65,2.61,1.25,5.1,1.9,7.59.29,1.1.66,2.18,1,3.27l0,0c-2.09-.63-4.16-1.34-6.27-1.86a5.28,5.28,0,0,1-3.41-2.91c-1.66-2.76-1.77-5.67-1.51-8.78h-2.82c0,2.34.07,4.66,0,7a3.5,3.5,0,0,1-.83,2c-1.29,1.44-2.72,2.76-4.08,4.15a1.72,1.72,0,0,0-.56,1c0,2.57,0,5.15,0,7.67.17.09.25.17.32.16a4.39,4.39,0,0,1,4.33,1.86c1,1.24,2.17,2.33,3.26,3.48l.38-.13v-5.2l0,0m.37,5.62,2.29,2.42"/>
            </g>
        </g>
    </g>
</svg>