<svg xmlns="http://www.w3.org/2000/svg" viewBox="0 0 96.5 107.43">
    <title>package</title>
    <g id="Layer_2" data-name="Layer 2">
        <g id="Слой_1" data-name="Слой 1">
            <path class="cls-1"
                  d="M95.64,79.53a21.82,21.82,0,0,0-11.89-13.8V25.49a1.84,1.84,0,0,0-.89-1.57L42.8.25A1.85,1.85,0,0,0,41,.25L.89,23.92a.87.87,0,0,1-.1.08l-.11.09a1.88,1.88,0,0,0-.4.44l0,0v0a1.72,1.72,0,0,0-.2.59c0,.06,0,.11,0,.16a1.1,1.1,0,0,0,0,.16V72.83A1.84,1.84,0,0,0,.89,74.4L41,98.07l.15.06a.94.94,0,0,0,.15.06,1.6,1.6,0,0,0,1.25,0,.76.76,0,0,0,.16-.06l.14-.06,10.87-6.43a21.84,21.84,0,1,0,42-12.11ZM78.51,25.58,41.88,47.05,31.5,40.91,68,19.36ZM64.39,17.25,27.92,38.8l-9.47-5.6L41.21,19.86a1.7,1.7,0,0,0,.46-.38l13.26-7.83ZM26.1,42V54.11l-9.41-5.56V36.39Zm15.78-38,9.46,5.59-14,8.3a1.54,1.54,0,0,0-.44.36l-22,12.9L5.4,25.49ZM40.06,93.31,3.64,71.79V28.68l9.41,5.56V49.59a1.84,1.84,0,0,0,.89,1.57L27,58.87a1.88,1.88,0,0,0,.93.25,1.82,1.82,0,0,0,1.82-1.82V44.1l10.32,6.1V93.31ZM53.52,80a22.18,22.18,0,0,0-.6,7.91L43.7,93.31V50.2L80.11,28.86V64.45A21.77,21.77,0,0,0,53.52,80ZM81.4,83.22l-8.19,8.19a1.83,1.83,0,0,1-2.58,0L67.9,88.68a1.82,1.82,0,0,1,2.57-2.57l1.45,1.44,6.9-6.9a1.82,1.82,0,0,1,2.58,2.57Z"/>
        </g>
    </g>
</svg>