<svg xmlns="http://www.w3.org/2000/svg" viewBox="0 0 95.97 95.97">
    <title>phone</title>
    <g>
        <g>
            <path d="M51.74,72.33A3.75,3.75,0,1,1,48,68.58a3.75,3.75,0,0,1,3.75,3.75Z"/>
            <path
                  d="M58.44,21.83H37.53a2.09,2.09,0,0,0-2.13,2V63.4a2.08,2.08,0,0,0,2.13,2H58.44a2.08,2.08,0,0,0,2.13-2V23.86a2.08,2.08,0,0,0-2.13-2Z"/>
            <path
                  d="M48,0A48,48,0,1,0,96,48,48,48,0,0,0,48,0ZM66.65,71.67A6.63,6.63,0,0,1,60,78.3H36a6.63,6.63,0,0,1-6.63-6.63V24.1A6.63,6.63,0,0,1,36,17.46H60a6.63,6.63,0,0,1,6.63,6.64Z"/>
        </g>
    </g>
</svg>