<svg xmlns="http://www.w3.org/2000/svg" viewBox="0 0 109.33 109.33">
    <title>stock</title>
    <g id="Layer_2" data-name="Layer 2">
        <g id="Слой_1" data-name="Слой 1">
            <path class="cls-1"
                  d="M108.43,31.23,55.59.25a1.85,1.85,0,0,0-1.81,0L.94,29.38A1.82,1.82,0,0,0,0,31v76.53a1.83,1.83,0,0,0,1.82,1.82h9.11a1.83,1.83,0,0,0,1.83-1.82V58.31H96.57v49.2a1.83,1.83,0,0,0,1.83,1.82h9.11a1.82,1.82,0,0,0,1.82-1.82V32.8A1.8,1.8,0,0,0,108.43,31.23ZM96.57,47.38H12.76V43.73H96.57ZM12.76,54.66V51H96.57v3.64Zm92.93,51h-5.47V41.91a1.82,1.82,0,0,0-1.82-1.82H10.93a1.82,1.82,0,0,0-1.82,1.82v63.77H3.64V32.05l51-28.13,51.05,29.92Z"/>
            <path class="cls-1"
                  d="M91.11,62H69.24a1.82,1.82,0,0,0-1.82,1.82v20h-20a1.82,1.82,0,0,0-1.83,1.82v21.87a1.83,1.83,0,0,0,1.83,1.82H91.11a1.82,1.82,0,0,0,1.82-1.82V63.77A1.82,1.82,0,0,0,91.11,62ZM78.35,65.6H82v3.64H78.35Zm0,21.86H82v3.65H78.35Zm-21.86,0h3.64v3.65H56.49Zm32.8,18.22H71.06V87.46h3.65v5.47a1.81,1.81,0,0,0,1.82,1.82h7.29a1.81,1.81,0,0,0,1.82-1.82V87.46h3.65Z"/>
            <path class="cls-1"
                  d="M43.73,27.33v7.29a1.82,1.82,0,0,0,1.82,1.82H63.78a1.82,1.82,0,0,0,1.82-1.82V27.33a1.83,1.83,0,0,0-1.82-1.82H45.55A1.83,1.83,0,0,0,43.73,27.33Zm3.65,1.82H62V32.8H47.38Z"/>
        </g>
    </g>
</svg>