<svg xmlns="http://www.w3.org/2000/svg" viewBox="0 0 108.29 108.22">
    <title>sun</title>
    <g id="Layer_2" data-name="Layer 2">
        <g id="Слой_1" data-name="Слой 1">
            <g id="ozbVSs.tif">
                <path class="cls-1"
                      d="M7.24,27A39.79,39.79,0,0,0,22.59,45.22a33.25,33.25,0,0,1,8.11-14C23.2,27.59,15.54,25.94,7.24,27Zm70.32,4.23a33.24,33.24,0,0,1,8.06,14A39.64,39.64,0,0,0,101,27,39.71,39.71,0,0,0,77.56,31.27Zm4.82,39.22c-1.32,2.29-3,4.35-4.56,6.5,6.38,3.7,16.83,5.47,23.12,4.07A39.53,39.53,0,0,0,85.83,63.13C84.69,65.62,83.73,68.17,82.38,70.49ZM22.59,63a39.5,39.5,0,0,0-15.29,18c6.15,1.39,16.56-.29,23.3-4.18A33.22,33.22,0,0,1,22.59,63ZM62.16,22.34A39.61,39.61,0,0,0,54.11,0a39.55,39.55,0,0,0-8,22.34A33.59,33.59,0,0,1,62.16,22.34ZM46.06,85.82a39.79,39.79,0,0,0,8,22.4,39.5,39.5,0,0,0,8.07-22.38A32.55,32.55,0,0,1,46.06,85.82Zm26.3-73.49a52.47,52.47,0,0,0-3.92,3.53A2,2,0,0,0,68,17.21c.13,2.21.38,4.41.51,6.61,0,.64.17,1.06.79,1.31a4.64,4.64,0,0,1,1.38.76c1.14,1,2.18.89,3.46.14,1.6-.93,3.37-1.56,5-2.38a1.8,1.8,0,0,0,.9-.88A37.74,37.74,0,0,0,81.31,8.16a7.51,7.51,0,0,0-.2-.87A32.77,32.77,0,0,0,72.36,12.33ZM26.73,13.57c.29,3,.89,6,1.43,9a1.71,1.71,0,0,0,.87,1c2,1,4.1,2,6.18,2.92a2.3,2.3,0,0,0,1.32-.05c.32-.08.58-.42.9-.52,2-.63,2.5-2,2.4-4a36,36,0,0,1,.44-4.82,1.45,1.45,0,0,0-.23-1A37.3,37.3,0,0,0,26.9,7.17,51.9,51.9,0,0,0,26.73,13.57ZM81.48,94.4c-.27-2.92-.87-5.82-1.41-8.71a2,2,0,0,0-1-1.14c-1.94-1-3.94-1.83-5.87-2.83a1.47,1.47,0,0,0-1.71.1c-.94.62-2.27.94-2.79,1.79s-.2,2.18-.3,3.3c-.12,1.39-.33,2.79-.44,4.19a1.43,1.43,0,0,0,.25,1,36.62,36.62,0,0,0,12.67,8.72c.06,0,.14,0,.46.07A54.83,54.83,0,0,0,81.48,94.4ZM101.61,50a70.79,70.79,0,0,0-7.31-2.67,1.5,1.5,0,0,0-1.13.17c-1.93,1.29-3.84,2.61-5.71,4a2.07,2.07,0,0,0-.61,1.17c-.09.43.11.93,0,1.36-.45,1.85.5,2.77,2,3.61s2.81,2,4.24,3a1.47,1.47,0,0,0,1,.29,36.11,36.11,0,0,0,13.8-6.55,4.25,4.25,0,0,0,.39-.46C106,52.57,103.91,51.11,101.61,50Z"/>
                <path class="cls-1"
                      d="M0,54.32c.55.35,1.12.67,1.65,1a37.75,37.75,0,0,0,12.13,5.47,1.89,1.89,0,0,0,1.32-.2C17,59.37,18.85,58,20.75,56.76a1.24,1.24,0,0,0,.66-1.28,5.67,5.67,0,0,1,0-1.79c.3-1.41-.36-2.13-1.51-2.81a42,42,0,0,1-4.49-3.14,1.82,1.82,0,0,0-1.81-.33A37.92,37.92,0,0,0,.72,53.54,4.4,4.4,0,0,1,0,53.9Z"/>
                <path class="cls-1"
                      d="M30.7,31.26C23.2,27.59,15.54,25.94,7.24,27A39.79,39.79,0,0,0,22.59,45.22,33.25,33.25,0,0,1,30.7,31.26Z"/>
                <path class="cls-1"
                      d="M101,27a39.71,39.71,0,0,0-23.42,4.23,33.24,33.24,0,0,1,8.06,14A39.64,39.64,0,0,0,101,27Z"/>
                <path class="cls-1"
                      d="M85.83,63.13c-1.14,2.49-2.1,5-3.45,7.36s-3,4.35-4.56,6.5c6.38,3.7,16.83,5.47,23.12,4.07A39.53,39.53,0,0,0,85.83,63.13Z"/>
                <path class="cls-1"
                      d="M30.6,76.87a33.22,33.22,0,0,1-8-13.87,39.5,39.5,0,0,0-15.29,18C13.45,82.44,23.86,80.76,30.6,76.87Z"/>
                <path class="cls-1"
                      d="M46.06,22.34a33.59,33.59,0,0,1,16.1,0A39.61,39.61,0,0,0,54.11,0,39.55,39.55,0,0,0,46.06,22.34Z"/>
                <path class="cls-1"
                      d="M62.17,85.84a32.55,32.55,0,0,1-16.11,0,39.79,39.79,0,0,0,8,22.4A39.5,39.5,0,0,0,62.17,85.84Z"/>
                <path class="cls-1"
                      d="M81.11,7.29a32.77,32.77,0,0,0-8.75,5,52.47,52.47,0,0,0-3.92,3.53A2,2,0,0,0,68,17.21c.13,2.21.38,4.41.51,6.61,0,.64.17,1.06.79,1.31a4.64,4.64,0,0,1,1.38.76c1.14,1,2.18.89,3.46.14,1.6-.93,3.37-1.56,5-2.38a1.8,1.8,0,0,0,.9-.88A37.74,37.74,0,0,0,81.31,8.16,7.51,7.51,0,0,0,81.11,7.29Z"/>
                <path class="cls-1"
                      d="M26.9,7.17a51.9,51.9,0,0,0-.17,6.4c.29,3,.89,6,1.43,9a1.71,1.71,0,0,0,.87,1c2,1,4.1,2,6.18,2.92a2.3,2.3,0,0,0,1.32-.05c.32-.08.58-.42.9-.52,2-.63,2.5-2,2.4-4a36,36,0,0,1,.44-4.82,1.45,1.45,0,0,0-.23-1A37.3,37.3,0,0,0,26.9,7.17Z"/>
                <path class="cls-1"
                      d="M81.33,100.92a54.83,54.83,0,0,0,.15-6.52c-.27-2.92-.87-5.82-1.41-8.71a2,2,0,0,0-1-1.14c-1.94-1-3.94-1.83-5.87-2.83a1.47,1.47,0,0,0-1.71.1c-.94.62-2.27.94-2.79,1.79s-.2,2.18-.3,3.3c-.12,1.39-.33,2.79-.44,4.19a1.43,1.43,0,0,0,.25,1,36.62,36.62,0,0,0,12.67,8.72C80.93,100.87,81,100.87,81.33,100.92Z"/>
                <path class="cls-1"
                      d="M108.29,53.89c-2.26-1.32-4.38-2.78-6.68-3.85a70.79,70.79,0,0,0-7.31-2.67,1.5,1.5,0,0,0-1.13.17c-1.93,1.29-3.84,2.61-5.71,4a2.07,2.07,0,0,0-.61,1.17c-.09.43.11.93,0,1.36-.45,1.85.5,2.77,2,3.61s2.81,2,4.24,3a1.47,1.47,0,0,0,1,.29,36.11,36.11,0,0,0,13.8-6.55A4.25,4.25,0,0,0,108.29,53.89Z"/>
            </g>
            <path class="cls-1"
                  d="M24.16,94.24a4.82,4.82,0,0,0-.51,3.82,5.14,5.14,0,0,0,6.21,3.61,4.7,4.7,0,0,0,3.06-2.37L44.84,80.47a27.15,27.15,0,0,0,16.56.71A28,28,0,0,0,81.26,47.05a27.48,27.48,0,0,0-4.9-9.93A27.36,27.36,0,0,0,58.17,26.54a27.85,27.85,0,0,0-21,5.55A27.37,27.37,0,0,0,26.62,50.27a27.54,27.54,0,0,0,.65,11.06,27.13,27.13,0,0,0,8.8,14L24.16,94.24ZM45.34,69.53a17.69,17.69,0,0,1-6.42-24.27,17.72,17.72,0,0,1,24.27-6.42,17.72,17.72,0,0,1,6.42,24.27,17.72,17.72,0,0,1-24.27,6.42Z"/>
        </g>
    </g>
</svg>