<?xml version="1.0" encoding="UTF-8"?><!DOCTYPE svg PUBLIC "-//W3C//DTD SVG 1.1//EN" "http://www.w3.org/Graphics/SVG/1.1/DTD/svg11.dtd"><svg xmlns="http://www.w3.org/2000/svg"><symbol id="icon-angle" viewBox="0 0 24.03 14.83"><title>angle</title><g data-name="Layer 2"><path class="cls-1" d="M24 2.77v.09a1.24 1.24 0 0 0-.18.14L12.19 14.65a1.18 1.18 0 0 0-.13.18H12c-.06-.07-.11-.15-.17-.21L.19 3 0 2.81 2.8.19C2.86.13 2.9.06 3 0h.09a1.49 1.49 0 0 0 .11.2l8.67 8.86.13.14.12-.11 9-9 .09-.09h.05a.44.44 0 0 0 .08.11l2.58 2.58z" data-name="Layer 1"/></g></symbol><symbol id="icon-arrow-down" viewBox="0 0 56 79"><title>arrow-down</title><path d="M54.68 52.94a2.761 2.761 0 1 0-3.89-3.92l-19.9 19.9V3.25A2.74 2.74 0 0 0 28.14.5a2.78 2.78 0 0 0-2.79 2.75v65.67L5.5 49.02a2.83 2.83 0 0 0-3.93 0 2.74 2.74 0 0 0 0 3.92l24.61 24.61a2.69 2.69 0 0 0 3.88 0l24.62-24.61z" fill="#1E211E"/></symbol><symbol id="icon-arrow-left" viewBox="0 0 78 55"><title>arrow-left</title><path d="M25.56 54.18a2.761 2.761 0 1 0 3.92-3.89l-19.9-19.9h65.67A2.74 2.74 0 0 0 78 27.64a2.78 2.78 0 0 0-2.75-2.79H9.58L29.48 5a2.83 2.83 0 0 0 0-3.93 2.74 2.74 0 0 0-3.92 0L.95 25.68a2.69 2.69 0 0 0 0 3.88l24.61 24.62z" fill="#1E211E"/></symbol><symbol id="icon-arrow-right" viewBox="0 0 78 55"><title>arrow-right</title><path d="M52.44.82a2.761 2.761 0 1 0-3.92 3.89l19.9 19.9H2.75A2.74 2.74 0 0 0 0 27.36a2.78 2.78 0 0 0 2.75 2.79h65.67L48.52 50a2.83 2.83 0 0 0 0 3.93 2.74 2.74 0 0 0 3.92 0l24.61-24.61a2.69 2.69 0 0 0 0-3.88L52.44.82z" fill="#1E211E"/></symbol><symbol id="icon-arrow-up" viewBox="0 0 56 79"><title>arrow-top</title><path d="M1.32 26.06a2.761 2.761 0 1 0 3.89 3.92l19.9-19.9v65.67a2.74 2.74 0 0 0 2.75 2.75 2.78 2.78 0 0 0 2.79-2.75V10.08l19.85 19.9a2.83 2.83 0 0 0 3.93 0 2.74 2.74 0 0 0 0-3.92L29.82 1.45a2.69 2.69 0 0 0-3.88 0L1.32 26.06z"/></symbol><symbol id="icon-bear" viewBox="0 0 160.99 92.02"><title>bear</title><g data-name="Layer 2"><path d="M103.94 0c3.69.42 7.42.63 11.07 1.32a16.29 16.29 0 0 1 6.11 2.44c7.72 5.42 15.12 11.42 25.69 8.64.58-.15 3.15 3.18 2.8 4.23-1.62 4.88.6 8.67 2.39 12.78 3.15 7.23 6 14.59 9 21.92-3.42 4-7.19 6.67-12.84 3.75a64.69 64.69 0 0 0-14.7-5.56c2 7.53 3.55 15.2 6.08 22.54 2.67 7.77 9.13 12.23 17 15.18-4.77 3.61-13 3.29-17.17.21a13.59 13.59 0 0 0-5.71-2.63 13.45 13.45 0 0 1-10.57-7.33c-3.71-6.78-7.52-13.52-11.64-20.06-.68-1.08-3.74-1.92-4.78-1.31-7.81 4.56-13.34 11-15.71 20-1.63 6.19-.07 8.7 6.35 10.06 1.84.39 3.44 1.9 6.22 3.53-18.6 5.1-29.46-3.65-29.34-26.48-5 1.21-11.14 1-14.18 3.91-2.71 2.64-2.53 8.76-2.67 13.38-.1 3.29 2.69 5 6.09 5.45 1.71.25 3.31 1.32 5 2l-.15 1.51c-1.44.47-2.86 1.27-4.31 1.34-5 .23-10 .18-15 .29-4.38.09-5.8-2.33-6.64-6.36a73.58 73.58 0 0 0-4.86-15c-1.63-3.66-4.62-5.1-8.29-1.69-6 5.55-12 11-18.78 17.12l6.37 3.95-1.13 1.61c-4.4.2-9.09 3.38-13-1.5C-.85 85-.68 77.69 2 72.52 3.92 68.91 5 64.87 6.29 61c3-9.23 5.7-18.53 8.69-27.76C19.23 20.07 29.18 12 41 6.57a50.19 50.19 0 0 1 26-4.39c10.11.93 20.4 0 30.6-.32 1.48-.05 2.9-1.21 4.34-1.86z" data-name="&#x421;&#x43B;&#x43E;&#x439; 1"/></g></symbol><symbol id="icon-bird" viewBox="0 0 179.67 113.38"><title>bird</title><g data-name="Layer 2"><path class="cls-1" d="M0 52c3.29 1.7 6.49 3.6 9.89 5.05 4.07 1.73 8.35 3 12.45 4.62a20.33 20.33 0 0 0 11.88 1 149.22 149.22 0 0 1 19.91-2.44l-12.36 6.92.23 1.45c3 .31 6.06.86 9.09.89 6.92.06 13.84-.17 20.76-.19a7.82 7.82 0 0 1 2.82.77c5.56 2.23 9.91 6.3 14.78 9.58 3.86 2.6 8.65 3.82 13 5.71a5.7 5.7 0 0 1 2.41 1.56c2.8 4 5.58 8 8.14 12.11 1.59 2.57 2.78 5.37 4.24 8.26l-2.24 1.49 10.2 4.6c0-.26 0-1 .1-1.91 1.39.14 2.78.31 4.18.41 4.08.28 7.25-1.88 10.63-3.7 1.26-.69 3.12-.26 5.13-.36l-3.31-2.39 2.72-.28c0-.2.07-.41.1-.61-.89-.12-1.92-.58-2.66-.29-7.08 2.79-12.24.19-16.42-5.54-3.29-4.51-6.64-9-10.47-14.15l9.39-2.81a8.25 8.25 0 0 0 2.57-.83c5.25-4 10.63-8 15.57-12.35a24.91 24.91 0 0 0 5.41-7.71c3.62-7.5 7.06-15.08 7.66-23.63.29-4.24.4-8.78 2-12.58 3-7.09 5.21-15.19 14.11-17.8-.27.51-.53 1-.76 1.55a5.28 5.28 0 0 0-.35 1.42 2 2 0 0 0 1.13 2.08 2.58 2.58 0 0 1 .55.42 1.87 1.87 0 0 0 2.3.45 6.38 6.38 0 0 0 3.14-3 15.54 15.54 0 0 0 1.47-5.44c.13-1.05.21-2.1.27-2.8-.14-1.12-.34-1.27-1.11-1.23a.41.41 0 0 1-.29-.06.54.54 0 0 0-.8 0 13.45 13.45 0 0 0-1.53 1.17c-.4.39-.76.8-1.12 1.22-2.08-.59-4.16.05-6.06.21-2.67.22-5.25 1.47-7.91 2.12a5.56 5.56 0 0 1-2.65-.15C151.89 3 145.52 1.18 139 2.13a13 13 0 0 0-6.65 3.71c-4.29 4.23-8 9-12.27 13.3a33 33 0 0 1-6.61 4.71c-5.49 3.31-11.31 6.12-16.54 9.8-5.72 4-12.31 5.44-18.75 7a204.16 204.16 0 0 1-25.3 4.46C43.46 46.25 34 46.5 24.56 47.23c-2.73.21-5.44.82-8.16 1.23l-16 2.43zm111 32.48c5.91 3 14.07 17.94 12.24 22.78-5.55-3.51-14.07-19.58-12.24-22.78z" data-name="&#x421;&#x43B;&#x43E;&#x439; 1"/></g></symbol><symbol id="icon-car" viewBox="0 0 129.74 88.45"><title>car</title><g data-name="Layer 2"><g data-name="&#x421;&#x43B;&#x43E;&#x439; 1"><path d="M106.07 64.67a12 12 0 0 0-8.46 3.49 11.74 11.74 0 0 0 0 16.8 12.07 12.07 0 0 0 8.46 3.49 11.89 11.89 0 0 0 0-23.78zM109.13 25.07a2.56 2.56 0 0 0-1.77-.69H93.81A2.65 2.65 0 0 0 91.17 27v21.69a2.65 2.65 0 0 0 2.64 2.64h21.5a2.64 2.64 0 0 0 2.69-2.64V34.18a2.62 2.62 0 0 0-.87-2zm3.54 21H96.45V29.64h9.88l6.34 5.71zM41.55 64.67a12 12 0 0 0-8.45 3.49 11.8 11.8 0 0 0-3.54 8.4A11.68 11.68 0 0 0 33.1 85a12 12 0 0 0 8.45 3.49 11.89 11.89 0 0 0 0-23.78zM23.93 67.92h-5.31v-7a2.64 2.64 0 0 0-5.28 0v9.67A2.65 2.65 0 0 0 16 73.2h8a2.64 2.64 0 1 0 0-5.28zM37.33 53.52a2.65 2.65 0 0 0-2.64-2.64h-32a2.64 2.64 0 0 0 0 5.28h32a2.63 2.63 0 0 0 2.64-2.64zM8 44l32.05.18a2.67 2.67 0 0 0 2.67-2.61 2.63 2.63 0 0 0-2.62-2.67l-32-.19H8A2.65 2.65 0 0 0 8 44zM13.39 32h32.05a2.64 2.64 0 0 0 0-5.28h-32a2.64 2.64 0 0 0 0 5.28z"/><path d="M128.76 28.42l-18.91-15.66a2.61 2.61 0 0 0-1.7-.61H85.91V2.64A2.65 2.65 0 0 0 83.27 0H16a2.65 2.65 0 0 0-2.64 2.64V22a2.64 2.64 0 0 0 5.28 0V5.28h62v62.64H59a2.64 2.64 0 0 0 0 5.28h32.25a2.64 2.64 0 0 0 0-5.28h-5.31V17.44h21.29l17.22 14.26-.18 36.17h-2.75a2.64 2.64 0 0 0 0 5.28h5.36a2.63 2.63 0 0 0 2.65-2.61l.21-40.05a2.82 2.82 0 0 0-1-2.07z"/></g></g></symbol><symbol id="icon-cart" viewBox="0 0 116.58 107.87"><title>cart</title><g data-name="Layer 2"><g data-name="&#x421;&#x43B;&#x43E;&#x439; 1"><path class="cls-1" d="M48.88 87.37a10.25 10.25 0 1 0 10.25 10.25 10.26 10.26 0 0 0-10.25-10.25zM84.84 87.37A10.25 10.25 0 1 0 95.1 97.62a10.26 10.26 0 0 0-10.26-10.25zM46.35 39.11h41a2.86 2.86 0 0 0 0-5.72h-41a2.86 2.86 0 1 0 0 5.72zM85.14 48.25H48.58a2.87 2.87 0 0 0 0 5.73h36.56a2.87 2.87 0 0 0 0-5.73z"/><path class="cls-1" d="M115.29 20.64a5.7 5.7 0 0 0-4.44-2.11H21.69l-1.8-8.74a5.72 5.72 0 0 0-3.32-4.1L4 .24a2.86 2.86 0 0 0-2.28 5.25l12.57 5.45 13.85 67.23a5.73 5.73 0 0 0 5.6 4.57h68.58a2.86 2.86 0 1 0 0-5.72H33.74l-1.68-8.18h70.79a5.73 5.73 0 0 0 5.6-4.57l8-38.86a5.7 5.7 0 0 0-1.16-4.77zm-12.44 42.47h-72l-8-38.86h88z"/></g></g></symbol><symbol id="icon-check" viewBox="0 0 17.25 17.25"><title>check</title><g data-name="Layer 2"><g data-name="Layer 1"><g data-name="&lt;Group&gt;"><path data-name="&lt;Compound Path&gt;" class="cls-1" d="M8.62 0a8.63 8.63 0 1 0 8.63 8.62A8.63 8.63 0 0 0 8.62 0zm3.74 6.86l-4.52 4.51a.7.7 0 0 1-.49.21.67.67 0 0 1-.49-.21l-2-2a.7.7 0 0 1 1-1L7.35 9.9l4-4a.7.7 0 0 1 1 1z"/></g></g></g></symbol><symbol id="icon-chill" viewBox="0 0 121 106"><title>chill</title><path d="M67.76 89.06l-7.36 7.36-7.4-7.36H2a16.09 16.09 0 0 0 4.89 11.8 16.11 16.11 0 0 0 11.8 4.89h83.42c9.215-.006 16.684-7.475 16.69-16.69H67.76zM58.4 51.42h4v27.34h-4zM42.015 20.69H.03l-.03-1.968c-.08-4.993 1.91-9.796 5.452-13.223A18.051 18.051 0 0 1 18.69 0h83.393c4.977-.066 9.761 1.923 13.178 5.453a18.07 18.07 0 0 1 5.499 13.269l-.031 1.968H78.746L60.402 44.604 42.015 20.69zm-37.908-4h39.878l16.413 21.346L76.774 16.69h39.88a14.147 14.147 0 0 0-4.22-8.409A14.086 14.086 0 0 0 102.11 4H18.658c-3.887-.062-7.627 1.488-10.377 4.327a14.07 14.07 0 0 0-4.174 8.363zm111.983-.41v4H2.75v-4h113.34zm1-7.87v4H3.75v-4h113.34z"/></symbol><symbol id="icon-claw" viewBox="0 0 138.13 147.36"><title>claw</title><g data-name="Layer 2"><g data-name="&#x421;&#x43B;&#x43E;&#x439; 1"><path class="cls-1" d="M36.76 87.9c-.16 5.83 7.31 16.26 18.8 13 3.64-1 7.11-2.63 10.69-3.87a9.79 9.79 0 0 1 9.18.89 16 16 0 0 0 8.72 2.7c6 .07 9.21-1.74 11-7.16.16-.52.36-1 .49-1.55 1.68-7 1.63-13.06-5.79-18.14-2.59-1.77-4.6-4.4-6.83-6.69-1.77-1.82-3.3-3.9-5.22-5.54-2.91-2.46-6-4.76-10.21-4.3a15.08 15.08 0 0 0-8.33 3.23c-3.21 2.74-6.17 5.77-9.28 8.63-2.16 2-4.18 4.26-6.64 5.79-4.45 2.76-6.34 6.64-6.58 13.01zm-3.29-22c.07.83.09 1.74.21 2.64.64 4.69 4.47 6.69 8.62 4.46 3.76-2 5.51-5.36 6.14-9.49a9.56 9.56 0 0 0-4.14-9.39c-2.86-1.75-5.68-1.26-7.61 1.51a17.4 17.4 0 0 0-3.22 10.29zm14.66-15.43l.44.15a26.84 26.84 0 0 0 .2 3.24 15.56 15.56 0 0 0 .9 3.29 4.8 4.8 0 0 0 5.13 3.2 7.71 7.71 0 0 0 7.28-6.23 13.08 13.08 0 0 0-1.76-10.41c-2.9-4.43-7.7-4.31-10.23.33-1.09 1.96-1.33 4.27-1.96 6.43zm28.93-6.27a31.15 31.15 0 0 0-.48-4.11 6.82 6.82 0 0 0-6.5-5.29c-3.65.12-5.53 1.84-6.25 5.73-.06.3-.16.59-.2.88-.4 3.58-.53 7.12 1.64 10.3 2.47 3.63 6.58 3.81 9.41.46 1.97-2.33 2.44-5.04 2.38-7.97zm13.72 9.32c-.42-3.65-1.22-7.52-5-9.91a4.8 4.8 0 0 0-7.09 2.25c-1.78 5.32-2 10.64 1.36 15.56 2.1 3.09 5.51 3.26 7.85.33a13.16 13.16 0 0 0 2.88-8.23zM42.93 34.27c-2.29.89-7.37 13.62-7.08 17.59.75-.19 1.65-.16 2.12-.59a3.72 3.72 0 0 1 3.64-.91c1.29.28 1.6-.39 1.54-1.66-.2-4.09-.26-8.18-.35-12.27-.02-.68.08-1.37.13-2.16zm38.42 6.06a16.91 16.91 0 0 1 3.39.4c1.55.48 2.29.12 2.41-1.51a26.22 26.22 0 0 0-2.39-14.07c-.23-.47-.8-.79-1.2-1.17-.76 5.62-1.48 10.96-2.21 16.35zm-15.53-7.8l.45.28a5.86 5.86 0 0 0 1.4-.68 2.88 2.88 0 0 1 3.18-.46c1.58.62 2.32-.16 2.27-1.69q-.14-4.07-.45-8.13c-.13-1.76-.41-3.51-.62-5.27l-.71-.07c-2.52 5.11-4.03 10.56-5.52 16.02zm-8.89-8.86c-2.48 1.54-7.27 13-6.55 16.44 2-1.43 3.8-3.24 6.55-2.43zm37.22 14.2l-.35.19v15.71a30.27 30.27 0 0 1 3.62-.24c1.38.08 1.81-.51 1.47-1.7q-1.8-6.21-3.71-12.4a6.9 6.9 0 0 0-1.03-1.56zM102 68c-.24 1-.47 1.95-.73 2.92-.55 2-1.48 3.71-3.84 4a5.69 5.69 0 0 1-5.91-3 15.79 15.79 0 0 1 .14-14c1.17-2.54 4.18-2.87 6.23-.93a11.21 11.21 0 0 1 3.78 7.56 6.51 6.51 0 0 0 .33 1.18z"/><path class="cls-1" d="M36.76 87.9c.23-6.37 2.13-10.25 6.54-13 2.46-1.53 4.48-3.8 6.64-5.79 3.11-2.86 6.07-5.89 9.28-8.63a15.08 15.08 0 0 1 8.33-3.23c4.18-.46 7.3 1.84 10.21 4.3 1.92 1.64 3.45 3.72 5.22 5.54 2.23 2.29 4.24 4.92 6.83 6.69 7.42 5.08 7.47 11.12 5.79 18.14-.13.52-.33 1-.49 1.55-1.75 5.42-5 7.23-11 7.16a16 16 0 0 1-8.72-2.7 9.79 9.79 0 0 0-9.14-.93c-3.58 1.24-7 2.84-10.69 3.87-11.49 3.29-18.96-7.14-18.8-12.97zM33.47 65.92a17.4 17.4 0 0 1 3.22-10.27c1.93-2.77 4.75-3.26 7.61-1.51a9.56 9.56 0 0 1 4.14 9.39C47.81 67.66 46.06 71 42.3 73c-4.15 2.23-8 .23-8.62-4.46-.12-.88-.14-1.79-.21-2.62zM48.13 50.47c.63-2.16.91-4.5 2-6.43 2.53-4.64 7.33-4.76 10.23-.33a13.08 13.08 0 0 1 1.76 10.41 7.71 7.71 0 0 1-7.28 6.23 4.8 4.8 0 0 1-5.13-3.2 15.56 15.56 0 0 1-.9-3.29 26.84 26.84 0 0 1-.2-3.24zM77.06 44.2c.06 2.93-.41 5.64-2.38 8-2.83 3.35-6.94 3.17-9.41-.46-2.17-3.18-2-6.72-1.64-10.3 0-.29.14-.58.2-.88.72-3.89 2.6-5.61 6.25-5.73a6.82 6.82 0 0 1 6.5 5.29 31.15 31.15 0 0 1 .48 4.08zM90.78 53.52a13.16 13.16 0 0 1-2.86 8.23c-2.34 2.93-5.75 2.76-7.85-.33-3.35-4.92-3.14-10.24-1.36-15.56a4.8 4.8 0 0 1 7.09-2.25c3.76 2.39 4.56 6.26 4.98 9.91zM42.93 34.27c0 .79-.15 1.48-.13 2.16.09 4.09.15 8.18.35 12.27.06 1.27-.25 1.94-1.54 1.66a3.72 3.72 0 0 0-3.64.91c-.47.43-1.37.4-2.12.59-.29-3.97 4.79-16.7 7.08-17.59zM81.35 40.33c.73-5.39 1.45-10.73 2.21-16.33.4.38 1 .7 1.2 1.17a26.22 26.22 0 0 1 2.39 14.07c-.12 1.63-.86 2-2.41 1.51a16.91 16.91 0 0 0-3.39-.42zM65.82 32.53c1.49-5.46 3-10.91 5.52-16l.71.07c.21 1.76.49 3.51.62 5.27q.31 4.06.45 8.13c0 1.53-.69 2.31-2.27 1.69a2.88 2.88 0 0 0-3.18.46 5.86 5.86 0 0 1-1.4.68zM56.93 23.67v14c-2.75-.81-4.55 1-6.55 2.43-.72-3.41 4.07-14.89 6.55-16.43zM94.15 37.87a6.9 6.9 0 0 1 1 1.56q1.92 6.18 3.71 12.4c.34 1.19-.09 1.78-1.47 1.7a30.27 30.27 0 0 0-3.62.24V38.06zM10 17.11V17zM.28 15.05v.27l8.42 8.81v-2.51zM8.75 33.22L0 26.89v1.09l8.86 8.86c-.04-1.21-.08-2.41-.11-3.62zM11.44 7.67l7 7.33 2.75-.6-8-7.09zM8.69 29.69v-1.53L3.2 23.58z"/><path class="cls-1" d="M137.61 13.82c.38-3.25-1.13-4.24-4.05-4.9C114.45 4.59 95.25 1 75.6.42A16.6 16.6 0 0 1 73.11 0H62.28C55 .63 47.65.79 40.47 2c-7.53 1.28-15 2.77-22.5 4.31l5.75 7.56C41.59 10.23 59.65 8.21 78 9a223.34 223.34 0 0 1 50.66 8.36c2.59 41-8.69 76.41-39.08 104.57-5.88 5.45-12.68 9.92-19.17 14.68a3.62 3.62 0 0 1-3.27 0c-29.59-19-48.77-45.25-56-80A120.6 120.6 0 0 1 9 39.31L.17 32.43a145 145 0 0 0 2.34 20.08c7.72 40.68 29.69 71.68 64.27 94.06a3.41 3.41 0 0 0 4.53-.14c7.44-5.79 15.36-11.06 22.26-17.42 24.2-22.33 38.25-50.09 42.73-82.68.8-5.86 1.23-11.76 1.83-17.65v-9.56c-.2-1.77-.72-3.57-.52-5.3z"/><path class="cls-1" d="M14.16 16l1-.24-4.93-4.16z"/></g></g></symbol><symbol id="icon-cross" viewBox="0 0 13 12"><title>cross</title><path d="M9.565.625c.714-.811 2.105-.821 2.882-.098.752.772.746 2.187-.073 2.91L9.771 6.037l2.22 2.22c.454.45.618 1.132.537 1.755-.065.494-.312.99-.752 1.25-.83.495-2.013.344-2.65-.4-.696-.698-1.392-1.396-2.092-2.09-.865.87-1.736 1.734-2.602 2.604-.693.784-2.012.815-2.805.167-.64-.566-.78-1.561-.467-2.333.106-.28.31-.505.526-.707l2.541-2.54c-.715-.716-1.43-1.432-2.147-2.146-.786-.718-.86-2.107-.117-2.88.78-.712 2.14-.633 2.852.144L6.96 3.228c.87-.865 1.737-1.734 2.604-2.603z"/></symbol><symbol id="icon-delivery" viewBox="0 0 120.14 98.47"><title>delivery</title><g data-name="Layer 2"><g data-name="&#x421;&#x43B;&#x43E;&#x439; 1"><path class="cls-1" d="M44.57 43.07l-7.9-3.14A3.57 3.57 0 0 0 34 46.57l7.9 3.14a3.57 3.57 0 1 0 2.64-6.64z"/><path class="cls-1" d="M117.88 5.52l-11.21-4.45a15 15 0 0 0-19.51 8.42L62.32 72.05a13.27 13.27 0 0 0-8.64 2.09l12.56-31.62a3.57 3.57 0 0 0-2-4.64L25.92 22.67a3.57 3.57 0 0 0-4.64 2L7.23 60l-2.34-.92a3.57 3.57 0 1 0-2.63 6.64l44 17.48.39.13 1.15.46A13.24 13.24 0 0 0 56 97.52a13.07 13.07 0 0 0 10.14-.15 13.11 13.11 0 0 0 7.06-7.27A13.27 13.27 0 0 0 69 74.68l24.8-62.55A7.88 7.88 0 0 1 104 7.71l11.22 4.45a3.57 3.57 0 1 0 2.63-6.64zM45.55 75.26L13.87 62.68l12.73-32L58.28 43.2z"/></g></g></symbol><symbol id="icon-flower" viewBox="0 0 92.09 118.94"><title>flower</title><g data-name="Layer 2"><path class="cls-1" d="M66.06 94.92a22 22 0 0 0-18 9.41V87.74l5.44-5.43 9.72 4 3.94-9.5.09.08h10.82V66.27l9.82-4.06-4.14-10-.11-.05 7.27-7.28-7.43-7.44 4-9.73L78 23.76l.07-.08V12.84H67.45L63.38 3l-10 4.15v.11L46 0l-7.4 7.44-9.73-4-3.94 9.5-.08-.08H14v10.61l-9.81 4.07 4.15 10h.11l-7.28 7.33 7.44 7.45L4.58 62l9.51 4-.08.08V76.9h10.63l4.07 9.82 10-4.15v-.11L44 87.74v16.59a22 22 0 0 0-18-9.41H0v2a22 22 0 0 0 22 22h48.07a22 22 0 0 0 22-22v-2zm-17-28.27c-.51.07-1 .12-1.41.16s-1 .07-1.45.07H46c-.62 0-1.22 0-1.82-.09s-1-.11-1.53-.2l-1.09-.17-1-.27a21.6 21.6 0 0 1-5.78-2.42c-.34-.2-.67-.38-1-.6l-.25-.13-.54-.4a22.2 22.2 0 0 1-5.8-6.41 21.83 21.83 0 0 1-2.91-8.21c-.07-.51-.12-1-.16-1.41a14.63 14.63 0 0 1-.1-1.65c0-.56 0-1.17.09-1.75s.11-1 .2-1.64l.17-1.07c.07-.36.18-.71.27-1.07a21.7 21.7 0 0 1 2.43-5.77c.2-.33.38-.67.6-1l.07-.1c.16-.23.33-.44.5-.67A22.13 22.13 0 0 1 34.74 26a21.37 21.37 0 0 1 5.79-2.43l1.08-.28c.4-.08.8-.13 1.2-.18h.16c.49-.07.94-.11 1.38-.15s1.07-.08 1.61-.08H46c.63 0 1.25 0 1.86.09s1 .11 1.51.2l1.09.17 1 .27A21.66 21.66 0 0 1 57.32 26c.33.2.67.39 1 .61l.24.17.54.4a22.07 22.07 0 0 1 8.71 14.61c.07.5.12.95.16 1.4s.08 1.11.08 1.67 0 1.18-.09 1.75-.11 1.06-.2 1.64l-.16 1.08c-.08.36-.18.71-.28 1.06a21.53 21.53 0 0 1-2.42 5.77c-.2.34-.39.68-.6 1l-.07.1c-.16.23-.34.45-.51.67a22.07 22.07 0 0 1-6.4 5.81 21.73 21.73 0 0 1-5.78 2.42l-1.08.28c-.4.08-.8.13-1.2.18zm14.1 9.21l-2.1 5.24-5.23-2.17-1.78-4.26v-5a26.06 26.06 0 0 0 4.15-1.75l2.91 2.9zm10.86-3h-5.13l-4.39-4.35-1.6-3.85.09-.09a25.76 25.76 0 0 0 3.07-3.11l3 1.23 5 5zM77.87 62l-6.57-2.7L69 57a26.15 26.15 0 0 0 1.77-4.15h4.14l5.74 2.38 2 4.78zm3.38-13.15h-5.51L72 47.31c.07-.81.12-1.62.12-2.44 0-.66 0-1.34-.1-2.07l4.66-1.93h4.62l4 4zm-4.2-21.15l5.22 2.16-2.17 5.23-4.26 1.77h-5A26.53 26.53 0 0 0 69 32.72l2.9-2.91zm-3-10.86V22l-4.39 4.39L65.83 28l-.13-.14a26.44 26.44 0 0 0-3.06-3l1.22-3 5-5zM61.21 8.25l2 4.79-2.72 6.57-2.29 2.27a27.06 27.06 0 0 0-4.15-1.76V16l2.38-5.73zM42 9.67l4-4 4 4v5.51L48.48 19c-.8-.07-1.61-.12-2.44-.12-.66 0-1.34 0-2.07.09L42 14.28zm-13.17 4.2L31 8.65l5.23 2.16L38 15.08v5a25.21 25.21 0 0 0-4.15 1.76L31 19zM18 16.84h5.17l4.4 4.4 1.6 3.84-.09.09A26.61 26.61 0 0 0 26 28.28l-3-1.23-5-5zm-3.79 10.88l6.57 2.72 2.28 2.28a25.65 25.65 0 0 0-1.77 4.14h-4.14l-5.74-2.38-2-4.78zm-3.37 13.15h5.51l3.79 1.57c-.07.8-.12 1.61-.12 2.43 0 .66 0 1.34.1 2.07l-4.67 1.93h-4.61l-4-4zM15 62l-5.18-2.12L12 54.65l4.26-1.77h5A26.1 26.1 0 0 0 23.05 57l-2.91 2.9zm3 10.9v-5.18l4.39-4.39 3.85-1.6.13.14a25.67 25.67 0 0 0 3.06 3l-1.22 3-5 5zm12.86 8.59l-2-4.79 2.72-6.57 2.27-2.27A24.85 24.85 0 0 0 38 69.62v4.15l-2.34 5.73zM42 74.56l1.57-3.79h1c.34 0 .94.07 1.39.07H46c.33 0 .64 0 1-.05s.73 0 1.12 0l1.93 4.66v4.61l-4 4-4-4z" data-name="&#x421;&#x43B;&#x43E;&#x439; 1"/></g></symbol><symbol id="icon-fri" viewBox="0 0 121 110"><title>fri</title><g fill="none" fill-rule="evenodd"><path d="M6.66 9.16a1.55 1.55 0 0 0 1.15-.58L10.1 6v13.46a1.54 1.54 0 0 0 1.43 1.43A1.55 1.55 0 0 0 13 19.46V2.29A1.54 1.54 0 0 0 11.53.86a2.24 2.24 0 0 0-1.43.86l-4.44 5a1.59 1.59 0 0 0-.43 1 1.35 1.35 0 0 0 1.43 1.44zM22.69 21.17c3 0 5.72-2.71 5.72-6.43 0-3.72-2.41-6.16-5.15-6.16A4.83 4.83 0 0 0 19.54 10a8 8 0 0 1 5.87-6.58A1.28 1.28 0 0 0 26.55 2 1.57 1.57 0 0 0 25 .57a3.81 3.81 0 0 0-1.15.15c-4 1.57-7.15 4.72-7.15 11.87-.02 5.72 2.84 8.58 5.99 8.58zm-.29-10c1.72 0 2.87 1.14 2.87 3.58 0 2.44-1.15 3.57-2.58 3.57-1.43 0-3-1.43-3.15-5.72a4.07 4.07 0 0 1 2.86-1.44v.01zM37.29 21.17c3.43 0 6-2.57 6-10.3s-2.57-10.3-6-10.3-6 2.58-6 10.3c0 7.72 2.56 10.3 6 10.3zm0-17.74c1.71 0 3.15 1.43 3.15 7.44 0 6.01-1.44 7.44-3.15 7.44s-3.15-1.43-3.15-7.44c0-6.01 1.43-7.44 3.15-7.44zM47 13.16h6.87a1.54 1.54 0 0 0 1.43-1.43 1.55 1.55 0 0 0-1.43-1.43H47a1.55 1.55 0 0 0-1.43 1.43A1.54 1.54 0 0 0 47 13.16zM57.9 9.16a1.54 1.54 0 0 0 1.1-.58L61.33 6v13.46a1.43 1.43 0 1 0 2.86 0V2.29A1.53 1.53 0 0 0 62.76.86a2.29 2.29 0 0 0-1.43.86l-4.43 5a1.59 1.59 0 0 0-.43 1 1.35 1.35 0 0 0 1.43 1.44zM67.92 3.72h6.29l-5.44 14.74a4.43 4.43 0 0 0-.28 1 1.42 1.42 0 0 0 2.72.57L77.5 3a1.72 1.72 0 0 0 .14-.71A1.53 1.53 0 0 0 76.21.86h-8.29a1.54 1.54 0 0 0-1.44 1.43 1.55 1.55 0 0 0 1.44 1.43zM85.66 21.17c3.43 0 6-2.57 6-10.3s-2.57-10.3-6-10.3-6 2.58-6 10.3c0 7.72 2.57 10.3 6 10.3zm0-17.74c1.72 0 3.15 1.43 3.15 7.44 0 6.01-1.43 7.44-3.15 7.44s-3.15-1.43-3.15-7.44c0-6.01 1.43-7.44 3.15-7.44zM97.68 6.87a3.49 3.49 0 0 0 3.44-3.44 3.44 3.44 0 0 0-6.87 0 3.48 3.48 0 0 0 3.43 3.44zm0-4.87a1.54 1.54 0 0 1 1.43 1.43 1.43 1.43 0 1 1-2.86 0A1.55 1.55 0 0 1 97.68 2zM110.13 21.17a5.26 5.26 0 0 0 5.3-3.43 3.19 3.19 0 0 0 .14-.86 1.32 1.32 0 0 0-1.29-1.43 1.35 1.35 0 0 0-1.29.86 2.84 2.84 0 0 1-2.86 2c-2.14 0-3.57-1.43-3.57-7.44 0-6.01 1.43-7.44 3.57-7.44a2.61 2.61 0 0 1 2.58 1.72 1.34 1.34 0 0 0 2.238.41 1.32 1.32 0 0 0 .332-.99 3.19 3.19 0 0 0-.14-.86 5 5 0 0 0-5-3.15c-3.86 0-6.44 2.58-6.44 10.3 0 7.72 2.57 10.31 6.43 10.31z" fill="#231F20" fill-rule="nonzero"/><path d="M6.89 104.31a16.07 16.07 0 0 0 11.8 4.89h83.42c9.215-.006 16.684-7.475 16.69-16.69H2a16.07 16.07 0 0 0 4.89 11.8z" fill="#000" fill-rule="nonzero"/><path d="M6.89 43.66a16.07 16.07 0 0 0 11.8 4.89h83.42a16.06 16.06 0 0 0 11.8-4.89 16.07 16.07 0 0 0 4.89-11.8H2a16.07 16.07 0 0 0 4.89 11.8zM117.07 39.86H3.73" stroke="#000" stroke-width="4"/><path d="M54.52 85.71a10.83 10.83 0 0 0 1.92 2.07 18.59 18.59 0 0 0 2.34 1.69 28 28 0 0 0 2.7 1.4h.05a8.45 8.45 0 0 1-1.13-3.79 3.49 3.49 0 0 1 .41-1.63 5.31 5.31 0 0 1 1.09-1.38c.44-.4.94-.81 1.48-1.21.54-.4 1.08-.86 1.62-1.31a14.85 14.85 0 0 0 1.48-1.49 6.16 6.16 0 0 0 1.08-1.9 6.91 6.91 0 0 0 .44-2.44 10.17 10.17 0 0 0-.47-3.11 9.73 9.73 0 0 0-1.22-2.55A11.51 11.51 0 0 0 64.37 68 19.43 19.43 0 0 0 62 66.3a26.83 26.83 0 0 0-2.7-1.4h-.05a8.7 8.7 0 0 1 1.11 3.79 3.46 3.46 0 0 1-.36 1.63 5.31 5.31 0 0 1-1.1 1.38c-.47.43-.965.834-1.48 1.21-.54.41-1.08.85-1.62 1.31a14.85 14.85 0 0 0-1.48 1.49 6.59 6.59 0 0 0-1.08 1.9 6.91 6.91 0 0 0-.41 2.44 10.17 10.17 0 0 0 .46 3.11 9.44 9.44 0 0 0 1.23 2.55zM72.14 93.2a.49.49 0 0 0-.38-.16H49a.55.55 0 0 0-.54.54v1.08a.51.51 0 0 0 .16.38.49.49 0 0 0 .38.16h22.76a.49.49 0 0 0 .38-.16.51.51 0 0 0 .16-.38v-1.08a.49.49 0 0 0-.16-.38zM34.52 85.71a10.83 10.83 0 0 0 1.92 2.07 18.59 18.59 0 0 0 2.34 1.69 28 28 0 0 0 2.7 1.4h.05a8.45 8.45 0 0 1-1.13-3.79 3.49 3.49 0 0 1 .41-1.63 5.31 5.31 0 0 1 1.09-1.38c.44-.4.94-.81 1.48-1.21.54-.4 1.08-.86 1.62-1.31a14.85 14.85 0 0 0 1.48-1.49 6.16 6.16 0 0 0 1.08-1.9 6.91 6.91 0 0 0 .44-2.44 10.17 10.17 0 0 0-.47-3.11 9.73 9.73 0 0 0-1.22-2.55A11.51 11.51 0 0 0 44.37 68 19.43 19.43 0 0 0 42 66.3a26.83 26.83 0 0 0-2.7-1.4h-.05a8.7 8.7 0 0 1 1.11 3.79 3.46 3.46 0 0 1-.36 1.63 5.31 5.31 0 0 1-1.1 1.38c-.47.43-.965.834-1.48 1.21-.54.41-1.08.85-1.62 1.31a14.85 14.85 0 0 0-1.48 1.49 6.59 6.59 0 0 0-1.08 1.9 6.91 6.91 0 0 0-.41 2.44 10.17 10.17 0 0 0 .46 3.11 9.44 9.44 0 0 0 1.23 2.55z" fill="#000" fill-rule="nonzero"/><path d="M52.14 93.2a.49.49 0 0 0-.38-.16H29a.55.55 0 0 0-.54.54v1.08a.51.51 0 0 0 .16.38.49.49 0 0 0 .38.16h22.76a.49.49 0 0 0 .38-.16.51.51 0 0 0 .16-.38v-1.08a.49.49 0 0 0-.16-.38zM75.44 85.71a11.51 11.51 0 0 0 1.92 2.07 19.43 19.43 0 0 0 2.35 1.69 26.83 26.83 0 0 0 2.7 1.4 8.45 8.45 0 0 1-1.13-3.79 3.49 3.49 0 0 1 .41-1.63 5.31 5.31 0 0 1 1.09-1.38 19 19 0 0 1 1.47-1.21c.55-.41 1.09-.85 1.63-1.31a14.85 14.85 0 0 0 1.48-1.49 6.59 6.59 0 0 0 1.08-1.9 6.91 6.91 0 0 0 .42-2.44 10.17 10.17 0 0 0-.47-3.11 9.44 9.44 0 0 0-1.23-2.55A11.09 11.09 0 0 0 85.3 68a19.43 19.43 0 0 0-2.3-1.7 28 28 0 0 0-2.7-1.4h-.05a8.6 8.6 0 0 1 1.12 3.79 3.46 3.46 0 0 1-.41 1.63 5.31 5.31 0 0 1-1.09 1.38c-.44.4-.94.81-1.48 1.21-.54.4-1.08.85-1.62 1.31a14.85 14.85 0 0 0-1.48 1.49 6.16 6.16 0 0 0-1.08 1.9 6.91 6.91 0 0 0-.42 2.44 10.17 10.17 0 0 0 .47 3.11 9.73 9.73 0 0 0 1.22 2.55h-.04zM93.07 93.2a.49.49 0 0 0-.38-.16H70a.49.49 0 0 0-.38.16.5.5 0 0 0-.17.38v1.08a.52.52 0 0 0 .17.38.49.49 0 0 0 .38.16h22.69a.49.49 0 0 0 .38-.16.51.51 0 0 0 .16-.38v-1.08a.49.49 0 0 0-.16-.38z" fill="#000" fill-rule="nonzero"/></g></symbol><symbol id="icon-hands" viewBox="0 0 112.95 114.21"><title>hands</title><g data-name="Layer 2"><g data-name="&#x421;&#x43B;&#x43E;&#x439; 1"><path d="M36.1 55.77c-5 7.21-9.86 14.48-15 21.58-.81 1.12-2.76 2.3-3.94 2.09-3-.53-5.44-2.5-4.4-6a39.51 39.51 0 0 1 4-8c1.12-1.95 2.54-3.74 3.83-5.6L19.21 59 8.89 74.51c-6.47-2.66-3.15-9.94 4.49-19l-1.13-.9L3 66.22c-4-3.41-4-3.41 3.44-15.71l-1.67-1.69L0 57.1c.66-9.79 5.31-17.42 13-22 6.68-4 13.61-7.55 20.52-11.12a4.85 4.85 0 0 1 3.66.25 20.48 20.48 0 0 1 4.05 2.88c3 2.4 7.45 4.4 8.34 7.44.8 2.72-2.65 6.52-3.74 10-1.27 4.08-2 8.32-3 12.51-.42 1.87-.74 3.76-1.18 6-3.16-1.62-7.14-1.87-4-7zM71.4 50.48l5 2.76-1.09 3.63c.67-.23 1.23-.23 1.4-.49C81.35 49 89.37 44.1 91.87 35.19c.21-.73 2.4-1.66 3.14-1.32 1.67.75 3.9 2 4.25 3.47a10.52 10.52 0 0 1-1 6.62c-1.66 3.36-4 6.38-6.07 9.59 4.67-2.26 6.39-4.63 10.9-15 5.42 3.53 5.41 3.6-1.43 18.8L109.87 47c7 7.36-2.29 11.11-3.52 17l6.6-7.19c-2.36 8.87-4.67 17.53-13.68 22-6.66 3.31-13.06 7.15-19.77 10.35-1.39.66-4 .09-5.39-.87a84.53 84.53 0 0 1-10.36-8.52c-.85-.82-1.28-3.28-.69-4.19 4.18-6.41 7-13.11 6.78-21-.05-1.27.94-2.58 1.56-4.1z"/><path d="M50.13 42.59l3.39-6.25 3.71 1.29.87-1.37c-7.39-5-14.83-10-22.12-15.22-1-.71-2-3.14-1.64-3.63 1.48-1.83 3.66-4.56 5.37-4.41 2.91.26 5.7 2.34 8.45 3.82 1.7.92 3.22 2.18 4.84 3.18l1-1.45-14.76-9.5c3.58-5.52 6.12-5 19.2 4.53l.91-1.1-12.09-9.62c7.31-7.41 11.14 2.53 17.85 4.41L56.87 0c8.81 2.12 17.39 4.22 21.81 13 3.32 6.67 7.15 13.11 10.19 19.9.73 1.63-.14 4.66-1.32 6.31-2.86 4-6.34 7.63-10 11.91-7.87-6.24-16.81-8.72-27.42-8.53zM55.53 77.44c6.74 4.64 14 9.54 21.15 14.7 1.07.78 2.12 3.59 1.66 4.11-1.54 1.71-4 4.13-5.69 3.85-3.1-.5-6-2.67-8.82-4.29-1.67-.94-3.17-2.18-4.74-3.28l-1 1.45 15.53 10.27c-3 6.09-9.8 3.34-19.22-4.76l-.89 1.09 12 9.89c-7.31 6.57-11-2-16.19-4.12l-1.81 1.78 8.62 4.87-1 1.2c-7.45-3.28-16-4.66-20.39-13.11-3.55-6.9-7.39-13.67-10.74-20.67a6 6 0 0 1 .39-5.15A122.76 122.76 0 0 1 34 63.93a3.55 3.55 0 0 1 3.4-.31 35.16 35.16 0 0 0 21 6.63c1 0 2.1.8 4.74 1.88z"/></g></g></symbol><symbol id="icon-headphones" viewBox="0 0 88.98 108.04"><title>headphones</title><g data-name="Layer 2"><path class="cls-1" d="M83.94 47v-9.34C83.94 16.91 66.22 0 44.45 0S5 16.91 5 37.66V47a6.31 6.31 0 0 0-4 3.07 8.51 8.51 0 0 0-1 4.12v20.5a8.43 8.43 0 0 0 1 4.12 6.87 6.87 0 0 0 6.52 3.39h3.11a4 4 0 0 0 4 3.78h3.53a4 4 0 0 0 4-4V46.51a4 4 0 0 0-4-4h-3.62a4 4 0 0 0-4 4v.17H8.9v-9C8.9 19.1 24.81 4 44.37 4s35.47 15.1 35.47 33.66v9h-1.63v-.17a4 4 0 0 0-4-4h-3.39a4 4 0 0 0-4 4V82.1a4 4 0 0 0 3.56 3.9 13 13 0 0 1-3.26 6.85c-3.15 3.49-8.29 5.5-15.22 6V98a4.22 4.22 0 0 0-4.38-4h-8.61a4.22 4.22 0 0 0-4.38 4v6a4.21 4.21 0 0 0 4.38 4h8.69a4.21 4.21 0 0 0 4.4-4v-1.13c8.14-.54 14.28-3 18.2-7.31a17.16 17.16 0 0 0 4.4-9.6 4 4 0 0 0 3.77-3.76h3.11A6.87 6.87 0 0 0 88 78.83a8.43 8.43 0 0 0 1-4.12V54.19A8.49 8.49 0 0 0 88 50a6.28 6.28 0 0 0-4.06-3zM18 46.49V82h-3.35V50.61a4.09 4.09 0 0 0 0-.7V46.6zm-7.39 4v27.7H7.52c-2.33 0-2.88-1-3.06-1.33A4.7 4.7 0 0 1 4 74.67V54.19A4.67 4.67 0 0 1 4.44 52c.18-.32.73-1.33 3.06-1.33zm63.64.1V82h-3.37V46.51h3.45zm10.61 24.1a4.7 4.7 0 0 1-.44 2.19c-.18.32-.73 1.33-3.06 1.33h-3.07V50.69h3.09c2.33 0 2.88 1 3.06 1.33a4.7 4.7 0 0 1 .44 2.19z" data-name="&#x421;&#x43B;&#x43E;&#x439; 1"/></g></symbol><symbol id="icon-logo" viewBox="0 0 201 104"><title>logo</title><path d="M200 51.63c-3.14 0-6.34 0-9.54.06-.36 0-.84.7-1 1.17a3170.4 3170.4 0 0 0-8.3 22.09 2 2 0 0 1-.66 1V51.83h-10.34c-.7 16.87-.7 33.53 0 50.34 3.31.1 6.51.23 9.72.25.32 0 .8-.62 1-1 2.91-7.68 5.77-15.38 8.64-23.07.05-.13.13-.25.41-.8v24.76H200c.9-4.5.94-43.93 0-50.68zM127.78 64.36c-.7-6.57-4.38-11.17-10.87-11.88-5.9-.65-11.92-.14-18-.14 0 .48-.13 1-.14 1.55-.06 2.28-.127 4.56-.2 6.84l12.64.07a24.16 24.16 0 0 1 3.09.23c2.67.45 4.26 2.75 4.13 5.66-.13 2.91-1.85 5-4.58 5.31-.878.07-1.76.09-2.64.06h-4.37v9.61a22.2 22.2 0 0 0 2.29-.23 38.56 38.56 0 0 1 6 .63c2.51.66 3.89 3.49 3.48 6.34a5.37 5.37 0 0 1-5.22 4.79h-4.25L98.66 93c0 2.76.07 5.52.11 8.28 0 .74 0 1.33 1.1 1.33 4.95 0 9.91.23 14.85 0A13.75 13.75 0 0 0 127.86 91c.92-5.24 0-10-3.55-14.23a16.08 16.08 0 0 0 3.47-12.41zM82.92 52.65c-.36 0-.85.71-1 1.18a2613.297 2613.297 0 0 0-8.3 22.09 2.13 2.13 0 0 1-.66 1V52.8H62.58c-.7 16.86-.71 33.53 0 50.34 3.31.1 6.52.23 9.72.25.33 0 .81-.63 1-1C76.16 94.65 79 87 81.9 79.26c0-.13.12-.25.4-.79v24.76h10.11c.9-4.46 1-43.88 0-50.63-3.1 0-6.3-.04-9.49.05zM46.24 53c-3.3-.48-6.71-.17-10.08-.2h-7.12c-.68 17-.68 33.7 0 50.55h10.3V82.84c2 0 3.9.11 5.76 0a13.23 13.23 0 0 0 12.39-10.58c.371-1.69.539-3.42.5-5.15C57.84 59.4 53.53 54 46.24 53zm2.36 15.79a5 5 0 0 1-4.87 4.56c-1.38.07-2.77 0-4.33 0V62.1a36.27 36.27 0 0 1 5.55.39c2.67.59 4.05 3.14 3.65 6.3zM.55 103.24h10.18V62.63h12.71V52.8H.55c-.73 16.9-.74 33.57 0 50.44zM151 72.19c-1.86-.13-3.74 0-5.77 0V61.34h13c0-3.32-.66-6.55-.66-9.84h-22.82c-.74 16.91-.74 33.58 0 50.45h.2v.32h7.12c3.36 0 6.78.29 10.07-.2 7.29-1.08 11.61-6.44 11.76-14.15a22.22 22.22 0 0 0-.5-5.15A13.21 13.21 0 0 0 151 72.19zm-.15 20.34a37.67 37.67 0 0 1-5.55.39V81.65c1.56 0 3-.05 4.33 0a5 5 0 0 1 4.87 4.55c.39 3.19-.96 5.74-3.63 6.33h-.02zM112.72 21.65l-7.47 6.25c-.1-.51-.25-1.33-.41-2.15-.16-.82-.31-1.76-.52-2.62a4.14 4.14 0 0 0-5-3.16c-.62.13-1.09.35-.81 1.18 1 3.13 2 6.29 3 9.41a1.51 1.51 0 0 1-.51 1.94c-2.24 1.72-4.4 3.53-6.65 5.23-.72.55-.64 1-.18 1.53a1.68 1.68 0 0 0 2.52.16c2.16-1.51 4.25-3.12 6.42-4.73 3.27 4.18 6.65 2.61 10-.23.24 3.42 1.91 4.62 4.71 3.43a16.64 16.64 0 0 0 3.55-2.13c1.59-1.21 3.07-2.58 4.73-4-.29 2.2-.7 4.44 1.78 5.41 2.29.89 3.89-.88 5.7-2-.14 1.49.79 2.11 1.81 2.65s1.73-.15 2.4-.7c2.07-1.72 4.07-3.52 6.13-5.25.94-.8 2-1.5 3-2.25a10.65 10.65 0 0 1-.69 2.61 16.58 16.58 0 0 0-.59 2.6 2.76 2.76 0 0 0 3 3.36 7.26 7.26 0 0 0 3.58-1.27 63.19 63.19 0 0 0 5.12-4.71 3 3 0 0 0 .45-.74l-.22-.35a7.64 7.64 0 0 0-1.36.62c-1.44 1-2.83 2-4.29 3-.35.23-.91.13-1.37.19a4.43 4.43 0 0 1 .06-1.27 87.07 87.07 0 0 1 2.18-5.18 2.7 2.7 0 0 0-.63-3.19 2.38 2.38 0 0 0-2.94-.56 27 27 0 0 0-4 2.15c-1.84 1.23-3.56 2.64-5.58 4.16.56-1 1.06-1.74 1.4-2.54a38.93 38.93 0 0 0 1.92-5 2.58 2.58 0 0 0-2.88-3.34 1.34 1.34 0 0 0-1 .65C138 23.73 137 26.67 136 29.64a8.15 8.15 0 0 1-4.24 4.61 2 2 0 0 1-1.67.17 1.87 1.87 0 0 1-.29-1.66 35.31 35.31 0 0 1 1.75-4.33c.71-1.47.64-2-.7-2.89-1.34-.89-2.08-.73-3.16.33a218.123 218.123 0 0 1-8.17 7.76 5.08 5.08 0 0 1-1.78.63 5.9 5.9 0 0 1 .24-2 19.36 19.36 0 0 1 11.36-9.65c1.55-.56 1.72-1 .66-2.28a3 3 0 0 0-3-1.2 12.5 12.5 0 0 0-2.6.63c-5 2.06-8.15 6-10.25 10.82a7.62 7.62 0 0 1-4.15 3.95c-1.25.56-2.13.11-3-1.23-.67-1-.87-1.83.27-2.83a72.8 72.8 0 0 0 5.41-5.42c1.32-1.39 1.11-2.67.04-3.4zm-31.17 9c.87-1.88 1.89-3.82 2.64-5.86a5.76 5.76 0 0 0 .16-3.11c-.31-1.33-1.55-1.58-2.79-1.58s-.82.95-1 1.56c-.11.34-.21.69-.34 1-1.57 4-3.11 8.07-4.74 12.08a1.88 1.88 0 0 0 .65 2.46c1.24 1 1.91 1 3.31-.15 2.07-1.71 4.07-3.52 6.12-5.24.95-.8 2-1.5 3.11-2.36-.52 1.91-1.07 3.46-1.36 5.06-.46 2.49 1.29 4.25 3.69 3.65 3.76-.94 6-3.85 8.27-6.8a2.27 2.27 0 0 0-1.5.35c-1.36.94-2.66 2-4 2.86a4.48 4.48 0 0 1-1.61.33 5.4 5.4 0 0 1 .11-1.52c.64-1.62 1.36-3.21 2.07-4.79a2.79 2.79 0 0 0-.56-3.33 2.58 2.58 0 0 0-3.19-.5A13.75 13.75 0 0 0 88.17 26c-2.27 1.51-4.5 3.15-6.62 4.67v-.02zM61.24 0a5.44 5.44 0 0 1 1.61 6.89c-2.24 5.19-4.23 10.5-6.21 15.81a15.94 15.94 0 0 0-.81 5c.94-1.09 1.86-2.19 2.82-3.25 5.74-6.34 11.47-12.71 17.27-19A30.91 30.91 0 0 1 80 1.93c1.27-.95 2.08-.7 2.76.73a5.33 5.33 0 0 1-.08 5.45 183.63 183.63 0 0 0-16.6 35.5c-.53 1.53-1.3 1.69-2.4.46a4.73 4.73 0 0 1-1.19-5A130 130 0 0 1 74.26 13.5a8.16 8.16 0 0 0 1-2.32c-2 2.25-4 4.47-5.93 6.75-4.06 4.78-8.09 9.59-12.15 14.38-.4.485-.834.94-1.3 1.36-1.6 1.44-3.27 1-4.11-1a11.54 11.54 0 0 1-.37-6.75c.75-3.84 1.8-7.63 2.72-11.45a.78.78 0 0 0-.11-.61c-.24.39-.49.76-.7 1.16l-16.6 30.3c-.66 1.21-1.05 1.31-2.15.45a4.2 4.2 0 0 1-1.3-5.7A294.76 294.76 0 0 1 56.42 4a51.83 51.83 0 0 1 3.74-4h1.08z"/><path d="M145.22 26.84a27 27 0 0 1 4-2.15 2.38 2.38 0 0 1 2.94.56 2.7 2.7 0 0 1 .63 3.19 136.81 136.81 0 0 0-2.18 5.18 4.43 4.43 0 0 0-.06 1.27c.46-.06 1 0 1.37-.19 1.46-1 2.85-2 4.29-3a7.64 7.64 0 0 1 1.36-.62l.22.35a3 3 0 0 1-.45.74 63.19 63.19 0 0 1-5.12 4.71 7.26 7.26 0 0 1-3.58 1.27 2.76 2.76 0 0 1-3-3.36c.127-.881.324-1.75.59-2.6.34-.837.572-1.714.69-2.61-1 .75-2 1.45-3 2.25-2.06 1.73-4.06 3.53-6.13 5.25-.67.55-1.39 1.24-2.4.7s-2-1.16-1.81-2.65c-1.81 1.14-3.41 2.91-5.7 2-2.48-1-2.07-3.21-1.78-5.41-1.66 1.42-3.14 2.79-4.73 4a16.64 16.64 0 0 1-3.55 2.13c-2.8 1.19-4.47 0-4.71-3.43-3.37 2.84-6.75 4.41-10 .23-2.17 1.61-4.26 3.22-6.42 4.73a1.68 1.68 0 0 1-2.52-.16c-.46-.56-.54-1 .18-1.53 2.25-1.7 4.41-3.51 6.65-5.23a1.51 1.51 0 0 0 .55-1.94c-1-3.12-2-6.28-3-9.41-.28-.83.19-1 .81-1.18a4.14 4.14 0 0 1 5 3.16c.21.86.35 1.74.52 2.62.17.88.31 1.64.41 2.15l7.47-6.25c1.07.73 1.29 2 0 3.4a72.8 72.8 0 0 1-5.41 5.42c-1.14 1-.94 1.79-.27 2.83.87 1.34 1.75 1.79 3 1.23a7.62 7.62 0 0 0 4.18-3.91c2.1-4.82 5.22-8.76 10.25-10.82a12.5 12.5 0 0 1 2.6-.63 3 3 0 0 1 3 1.2c1.06 1.27.89 1.72-.66 2.28A19.36 19.36 0 0 0 118 32.3a5.9 5.9 0 0 0-.24 2 5.08 5.08 0 0 0 1.78-.63c2.767-2.54 5.49-5.127 8.17-7.76 1.08-1.06 1.83-1.23 3.16-.33 1.33.9 1.41 1.42.7 2.89a35.31 35.31 0 0 0-1.75 4.33 1.87 1.87 0 0 0 .29 1.66 2 2 0 0 0 1.67-.17 8.15 8.15 0 0 0 4.22-4.65c1-3 2-5.91 3.08-8.84a1.34 1.34 0 0 1 1-.65 2.58 2.58 0 0 1 2.92 3.34 38.93 38.93 0 0 1-1.92 5c-.34.8-.84 1.53-1.4 2.54 2-1.52 3.74-2.93 5.58-4.16"/><path d="M162.93 25.78a15.25 15.25 0 0 0-1 1.46c-1.31 2.52-2.58 5.05-3.89 7.56a6.33 6.33 0 0 1-1.14 1.64 2.27 2.27 0 0 1-1.35.56c-1.21.08-1.55-.44-1-1.51 1.74-3.44 3.47-6.88 5.31-10.26a14.06 14.06 0 0 1 2.36-3c1.29-1.29 2.56-1.12 3.24.54a52.4 52.4 0 0 1 2 6.27c.59 2.25 1 4.54 1.51 6.82a1.54 1.54 0 0 1-.43 1.75c-.72.55-1.36.47-1.65-.37-.74-2.13-1.4-4.27-2.07-6.42-.38-1.2-.69-2.42-1.08-3.62a9.68 9.68 0 0 0-.81-1.42zM81.55 30.67c2.12-1.52 4.35-3.16 6.62-4.72a13.75 13.75 0 0 1 2.4-1.19 2.58 2.58 0 0 1 3.19.5 2.79 2.79 0 0 1 .56 3.33c-.71 1.58-1.43 3.17-2.07 4.79a5.4 5.4 0 0 0-.11 1.52 4.48 4.48 0 0 0 1.61-.33c1.39-.89 2.69-1.92 4-2.86a2.27 2.27 0 0 1 1.5-.35c-2.24 3-4.51 5.86-8.27 6.8-2.43.6-4.18-1.14-3.74-3.61.29-1.6.84-3.15 1.36-5.06-1.14.86-2.16 1.56-3.11 2.36-2.05 1.72-4.05 3.53-6.12 5.24-1.4 1.17-2.07 1.16-3.31.15a1.88 1.88 0 0 1-.65-2.46c1.63-4 3.17-8 4.74-12.08.13-.33.23-.68.34-1 .2-.61-.13-1.56 1-1.56s2.48.25 2.79 1.58a5.76 5.76 0 0 1-.16 3.11c-.68 2.02-1.7 3.96-2.57 5.84z"/></symbol><symbol id="icon-map" viewBox="0 0 124.48 74.48"><title>map</title><g data-name="Layer 2"><path d="M118.66 55.32h-2.6v13.8h-5.63v-8.2c-1.11 0-2.13-.08-3.13 0a14 14 0 0 1-9.57-2.24c-.79-.54-1.27-.26-2 .31a4.69 4.69 0 0 0-1.87 4.61 22.3 22.3 0 0 1 0 2.85c-1.45 0-2.78.06-4.09 0a2.59 2.59 0 0 0-2.48 1 4.23 4.23 0 0 1-4.12 1.76 57.94 57.94 0 0 0-6.72 0 3.37 3.37 0 0 1-3.26-1.34c-.32-.46-.69-.88-1-1.32l-.36.18v5.19c-2.94 0-5.74.11-8.52 0A4.43 4.43 0 0 0 59 73.74c-.62.9-1.29.92-2.26.39-2.17-1.2-4.66-2-6.15-4.11a41.54 41.54 0 0 1-3-5.2c-.45-.92-1-1.35-2-1.16a2.3 2.3 0 0 1-2.44-1A4.32 4.32 0 0 0 39 60.88c-2.83.15-5.67 0-8.6 0v2.63c-1.61.25-3 .28-4.1-1.14-.9-1.14-2.12-2-3.07-3.14a3 3 0 0 0-2.71-1.1c-2.18.08-4.37 0-6.65 0v5.42h-2.74L8.34 71.9H5.55v-4.52A3.54 3.54 0 0 0 5 65.72C3.61 63.5 2.19 61.29.65 59.16a4.5 4.5 0 0 1-.58-3.33c0-.28.52-.62.87-.74 2.38-.84 4.78-1.64 7.32-2.49-.5-2.06-1-4.06-1.47-6.05a12.6 12.6 0 0 0-.35-1.24c-.88-2.31-1.15-4.53 1.41-6.12a1.44 1.44 0 0 0 .41-1.13c-.27-2.81 1.66-4.81 2.63-7.15.1-.22.65-.35 1-.35 2.11 0 4.22-.06 6.34 0a1.77 1.77 0 0 0 1.76-1c1.42-2.22 2.87-4.41 4.39-6.55a2.08 2.08 0 0 1 1.42-.75c1.46-.1 2.93 0 4.53 0v8.28c1.59 0 3 .05 4.49 0a2.41 2.41 0 0 1 2 .86c1.48 1.57 3 3.08 4.58 4.66 1.76-.88 3.45-1.7 5.12-2.57a2.06 2.06 0 0 0 .73-.84c.54-1 1-2 1.52-3 1-2.12 1-2.12 3.68-1.77v5.37a36.15 36.15 0 0 0 2.77-2.74 11.58 11.58 0 0 1 6.56-4c.5-.12 1-.34 1.47-.47 1.87-.49 3.89-.84 2.91-3.67h5.61v5.32h5.49v-2.42c2.84-1.23 4 1.05 5.6 2.46 1.66-.82 3.3-1.58 4.87-2.45a1.69 1.69 0 0 0 .62-1.21c.07-1.49 0-3 0-4.59h5.41v-5.56l5.61 2.75c.83-2.46 1.6-4.86 2.46-7.22a4.85 4.85 0 0 1 1-1.73c2.46-2.53 5-5 7.65-7.72.84.93 1.6 1.74 2.33 2.58a4 4 0 0 1-.1 3.61c-.39.41-.8.8-1.19 1.19-1.26 1.26-1.34 1.58-.92 3.68l5.4-2.64v8.23l2.64.11v2.69l-2.51.11c-.2 1.46-.35 2.73 1 3.86 1.47 1.25 2.74 2.72 4.32 4.32l.13-2.67h2.67v2.66l-2.67.14c.65 2.61 1.25 5.1 1.9 7.59.29 1.1.66 2.18 1 3.27-2.09-.63-4.16-1.34-6.27-1.86a5.28 5.28 0 0 1-3.41-2.91c-1.66-2.76-1.77-5.67-1.51-8.78h-2.82c0 2.34.07 4.66 0 7a3.5 3.5 0 0 1-.83 2c-1.29 1.44-2.72 2.76-4.08 4.15a1.72 1.72 0 0 0-.56 1V47c.17.09.25.17.32.16a4.39 4.39 0 0 1 4.33 1.86c1 1.24 2.17 2.33 3.26 3.48l.38-.13v-5.2m.37 5.62l2.29 2.42" data-name="&#x421;&#x43B;&#x43E;&#x439; 1"/></g></symbol><symbol id="icon-package" viewBox="0 0 96.5 107.43"><title>package</title><g data-name="Layer 2"><path class="cls-1" d="M95.64 79.53a21.82 21.82 0 0 0-11.89-13.8V25.49a1.84 1.84 0 0 0-.89-1.57L42.8.25a1.85 1.85 0 0 0-1.8 0L.89 23.92a.87.87 0 0 1-.1.08l-.11.09a1.88 1.88 0 0 0-.4.44 1.72 1.72 0 0 0-.2.59v.16a1.1 1.1 0 0 0 0 .16v47.39a1.84 1.84 0 0 0 .81 1.57L41 98.07l.15.06a.94.94 0 0 0 .15.06 1.6 1.6 0 0 0 1.25 0 .76.76 0 0 0 .16-.06l.14-.06 10.87-6.43a21.84 21.84 0 1 0 42-12.11zM78.51 25.58L41.88 47.05 31.5 40.91 68 19.36zm-14.12-8.33L27.92 38.8l-9.47-5.6 22.76-13.34a1.7 1.7 0 0 0 .46-.38l13.26-7.83zM26.1 42v12.11l-9.41-5.56V36.39zM41.88 4l9.46 5.59-14 8.3a1.54 1.54 0 0 0-.44.36l-22 12.9-9.5-5.66zm-1.82 89.31L3.64 71.79V28.68l9.41 5.56v15.35a1.84 1.84 0 0 0 .89 1.57L27 58.87a1.88 1.88 0 0 0 .93.25 1.82 1.82 0 0 0 1.82-1.82V44.1l10.32 6.1v43.11zM53.52 80a22.18 22.18 0 0 0-.6 7.91l-9.22 5.4V50.2l36.41-21.34v35.59A21.77 21.77 0 0 0 53.52 80zm27.88 3.22l-8.19 8.19a1.83 1.83 0 0 1-2.58 0l-2.73-2.73a1.82 1.82 0 0 1 2.57-2.57l1.45 1.44 6.9-6.9a1.82 1.82 0 0 1 2.58 2.57z" data-name="&#x421;&#x43B;&#x43E;&#x439; 1"/></g></symbol><symbol id="icon-phone" viewBox="0 0 95.97 95.97"><title>phone</title><path d="M51.74 72.33A3.75 3.75 0 1 1 48 68.58a3.75 3.75 0 0 1 3.75 3.75zM58.44 21.83H37.53a2.09 2.09 0 0 0-2.13 2V63.4a2.08 2.08 0 0 0 2.13 2h20.91a2.08 2.08 0 0 0 2.13-2V23.86a2.08 2.08 0 0 0-2.13-2z"/><path d="M48 0a48 48 0 1 0 48 48A48 48 0 0 0 48 0zm18.65 71.67A6.63 6.63 0 0 1 60 78.3H36a6.63 6.63 0 0 1-6.63-6.63V24.1A6.63 6.63 0 0 1 36 17.46h24a6.63 6.63 0 0 1 6.63 6.64z"/></symbol><symbol id="icon-plus" viewBox="0 0 18 18"><title>plus</title><path d="M17.883 9.994H9.994v7.889H8.006V9.994H.117V8.006h7.889V.117h1.988v7.889h7.889z"/></symbol><symbol id="icon-stock" viewBox="0 0 109.33 109.33"><title>stock</title><g data-name="Layer 2"><g data-name="&#x421;&#x43B;&#x43E;&#x439; 1"><path class="cls-1" d="M108.43 31.23L55.59.25a1.85 1.85 0 0 0-1.81 0L.94 29.38A1.82 1.82 0 0 0 0 31v76.53a1.83 1.83 0 0 0 1.82 1.82h9.11a1.83 1.83 0 0 0 1.83-1.82V58.31h83.81v49.2a1.83 1.83 0 0 0 1.83 1.82h9.11a1.82 1.82 0 0 0 1.82-1.82V32.8a1.8 1.8 0 0 0-.9-1.57zM96.57 47.38H12.76v-3.65h83.81zm-83.81 7.28V51h83.81v3.64zm92.93 51h-5.47V41.91a1.82 1.82 0 0 0-1.82-1.82H10.93a1.82 1.82 0 0 0-1.82 1.82v63.77H3.64V32.05l51-28.13 51.05 29.92z"/><path class="cls-1" d="M91.11 62H69.24a1.82 1.82 0 0 0-1.82 1.82v20h-20a1.82 1.82 0 0 0-1.83 1.82v21.87a1.83 1.83 0 0 0 1.83 1.82h43.69a1.82 1.82 0 0 0 1.82-1.82V63.77A1.82 1.82 0 0 0 91.11 62zm-12.76 3.6H82v3.64h-3.65zm0 21.86H82v3.65h-3.65zm-21.86 0h3.64v3.65h-3.64zm32.8 18.22H71.06V87.46h3.65v5.47a1.81 1.81 0 0 0 1.82 1.82h7.29a1.81 1.81 0 0 0 1.82-1.82v-5.47h3.65zM43.73 27.33v7.29a1.82 1.82 0 0 0 1.82 1.82h18.23a1.82 1.82 0 0 0 1.82-1.82v-7.29a1.83 1.83 0 0 0-1.82-1.82H45.55a1.83 1.83 0 0 0-1.82 1.82zm3.65 1.82H62v3.65H47.38z"/></g></g></symbol><symbol id="icon-sun" viewBox="0 0 108.29 108.22"><title>sun</title><g data-name="Layer 2"><g data-name="&#x421;&#x43B;&#x43E;&#x439; 1"><path class="cls-1" d="M7.24 27a39.79 39.79 0 0 0 15.35 18.22 33.25 33.25 0 0 1 8.11-14C23.2 27.59 15.54 25.94 7.24 27zm70.32 4.23a33.24 33.24 0 0 1 8.06 14A39.64 39.64 0 0 0 101 27a39.71 39.71 0 0 0-23.44 4.27zm4.82 39.22c-1.32 2.29-3 4.35-4.56 6.5 6.38 3.7 16.83 5.47 23.12 4.07a39.53 39.53 0 0 0-15.11-17.89c-1.14 2.49-2.1 5.04-3.45 7.36zM22.59 63A39.5 39.5 0 0 0 7.3 81c6.15 1.39 16.56-.29 23.3-4.18A33.22 33.22 0 0 1 22.59 63zm39.57-40.66A39.61 39.61 0 0 0 54.11 0a39.55 39.55 0 0 0-8 22.34 33.59 33.59 0 0 1 16.05 0zm-16.1 63.48a39.79 39.79 0 0 0 8 22.4 39.5 39.5 0 0 0 8.07-22.38 32.55 32.55 0 0 1-16.07-.02zm26.3-73.49a52.47 52.47 0 0 0-3.92 3.53 2 2 0 0 0-.44 1.35c.13 2.21.38 4.41.51 6.61 0 .64.17 1.06.79 1.31a4.64 4.64 0 0 1 1.38.76c1.14 1 2.18.89 3.46.14 1.6-.93 3.37-1.56 5-2.38a1.8 1.8 0 0 0 .9-.88 37.74 37.74 0 0 0 1.27-14.61 7.51 7.51 0 0 0-.2-.87 32.77 32.77 0 0 0-8.75 5.04zm-45.63 1.24c.29 3 .89 6 1.43 9a1.71 1.71 0 0 0 .87 1c2 1 4.1 2 6.18 2.92a2.3 2.3 0 0 0 1.32-.05c.32-.08.58-.42.9-.52 2-.63 2.5-2 2.4-4a36 36 0 0 1 .44-4.82 1.45 1.45 0 0 0-.23-1A37.3 37.3 0 0 0 26.9 7.17a51.9 51.9 0 0 0-.17 6.4zM81.48 94.4c-.27-2.92-.87-5.82-1.41-8.71a2 2 0 0 0-1-1.14c-1.94-1-3.94-1.83-5.87-2.83a1.47 1.47 0 0 0-1.71.1c-.94.62-2.27.94-2.79 1.79s-.2 2.18-.3 3.3c-.12 1.39-.33 2.79-.44 4.19a1.43 1.43 0 0 0 .25 1 36.62 36.62 0 0 0 12.67 8.72c.06 0 .14 0 .46.07a54.83 54.83 0 0 0 .14-6.49zM101.61 50a70.79 70.79 0 0 0-7.31-2.67 1.5 1.5 0 0 0-1.13.17c-1.93 1.29-3.84 2.61-5.71 4a2.07 2.07 0 0 0-.61 1.17c-.09.43.11.93 0 1.36-.45 1.85.5 2.77 2 3.61s2.81 2 4.24 3a1.47 1.47 0 0 0 1 .29 36.11 36.11 0 0 0 13.8-6.55 4.25 4.25 0 0 0 .39-.46c-2.28-1.35-4.37-2.81-6.67-3.92zM0 54.32c.55.35 1.12.67 1.65 1a37.75 37.75 0 0 0 12.13 5.47 1.89 1.89 0 0 0 1.32-.2c1.9-1.22 3.75-2.59 5.65-3.83a1.24 1.24 0 0 0 .66-1.28 5.67 5.67 0 0 1 0-1.79c.3-1.41-.36-2.13-1.51-2.81a42 42 0 0 1-4.49-3.14 1.82 1.82 0 0 0-1.81-.33A37.92 37.92 0 0 0 .72 53.54a4.4 4.4 0 0 1-.72.36z"/><path class="cls-1" d="M30.7 31.26C23.2 27.59 15.54 25.94 7.24 27a39.79 39.79 0 0 0 15.35 18.22 33.25 33.25 0 0 1 8.11-13.96zM101 27a39.71 39.71 0 0 0-23.42 4.23 33.24 33.24 0 0 1 8.06 14A39.64 39.64 0 0 0 101 27zM85.83 63.13c-1.14 2.49-2.1 5-3.45 7.36s-3 4.35-4.56 6.5c6.38 3.7 16.83 5.47 23.12 4.07a39.53 39.53 0 0 0-15.11-17.93zM30.6 76.87a33.22 33.22 0 0 1-8-13.87A39.5 39.5 0 0 0 7.31 81c6.14 1.44 16.55-.24 23.29-4.13zM46.06 22.34a33.59 33.59 0 0 1 16.1 0A39.61 39.61 0 0 0 54.11 0a39.55 39.55 0 0 0-8.05 22.34zM62.17 85.84a32.55 32.55 0 0 1-16.11 0 39.79 39.79 0 0 0 8 22.4 39.5 39.5 0 0 0 8.11-22.4zM81.11 7.29a32.77 32.77 0 0 0-8.75 5 52.47 52.47 0 0 0-3.92 3.53 2 2 0 0 0-.44 1.39c.13 2.21.38 4.41.51 6.61 0 .64.17 1.06.79 1.31a4.64 4.64 0 0 1 1.38.76c1.14 1 2.18.89 3.46.14 1.6-.93 3.37-1.56 5-2.38a1.8 1.8 0 0 0 .9-.88 37.74 37.74 0 0 0 1.27-14.61 7.51 7.51 0 0 0-.2-.87zM26.9 7.17a51.9 51.9 0 0 0-.17 6.4c.29 3 .89 6 1.43 9a1.71 1.71 0 0 0 .87 1c2 1 4.1 2 6.18 2.92a2.3 2.3 0 0 0 1.32-.05c.32-.08.58-.42.9-.52 2-.63 2.5-2 2.4-4a36 36 0 0 1 .44-4.82 1.45 1.45 0 0 0-.23-1A37.3 37.3 0 0 0 26.9 7.17zM81.33 100.92a54.83 54.83 0 0 0 .15-6.52c-.27-2.92-.87-5.82-1.41-8.71a2 2 0 0 0-1-1.14c-1.94-1-3.94-1.83-5.87-2.83a1.47 1.47 0 0 0-1.71.1c-.94.62-2.27.94-2.79 1.79s-.2 2.18-.3 3.3c-.12 1.39-.33 2.79-.44 4.19a1.43 1.43 0 0 0 .25 1 36.62 36.62 0 0 0 12.67 8.72c.05.05.12.05.45.1zM108.29 53.89c-2.26-1.32-4.38-2.78-6.68-3.85a70.79 70.79 0 0 0-7.31-2.67 1.5 1.5 0 0 0-1.13.17c-1.93 1.29-3.84 2.61-5.71 4a2.07 2.07 0 0 0-.61 1.17c-.09.43.11.93 0 1.36-.45 1.85.5 2.77 2 3.61s2.81 2 4.24 3a1.47 1.47 0 0 0 1 .29 36.11 36.11 0 0 0 13.8-6.55 4.25 4.25 0 0 0 .4-.53z"/><path class="cls-1" d="M24.16 94.24a4.82 4.82 0 0 0-.51 3.82 5.14 5.14 0 0 0 6.21 3.61 4.7 4.7 0 0 0 3.06-2.37l11.92-18.83a27.15 27.15 0 0 0 16.56.71 28 28 0 0 0 19.86-34.13 27.48 27.48 0 0 0-4.9-9.93 27.36 27.36 0 0 0-18.19-10.58 27.85 27.85 0 0 0-21 5.55 27.37 27.37 0 0 0-10.55 18.18 27.54 27.54 0 0 0 .65 11.06 27.13 27.13 0 0 0 8.8 14L24.16 94.24zm21.18-24.71a17.69 17.69 0 0 1-6.42-24.27 17.72 17.72 0 0 1 24.27-6.42 17.72 17.72 0 0 1 6.42 24.27 17.72 17.72 0 0 1-24.27 6.42z"/></g></g></symbol></svg>